<svg width="24" height="24" viewBox="0 0 24 24" fill="none" xmlns="http://www.w3.org/2000/svg">
<path fill-rule="evenodd" clip-rule="evenodd" d="M7.42864 5.14286C7.27709 5.14286 7.13174 5.20306 7.02458 5.31022C6.91742 5.41739 6.85721 5.56273 6.85721 5.71429V8C6.85721 8.15155 6.91742 8.2969 7.02458 8.40406C7.13174 8.51122 7.27709 8.57143 7.42864 8.57143C7.58019 8.57143 7.72554 8.51122 7.8327 8.40406C7.93987 8.2969 8.00007 8.15155 8.00007 8V5.71429C8.00007 5.56273 7.93987 5.41739 7.8327 5.31022C7.72554 5.20306 7.58019 5.14286 7.42864 5.14286ZM7.42864 4C7.8833 4 8.31933 4.18061 8.64082 4.5021C8.96231 4.82359 9.14293 5.25963 9.14293 5.71429V8C9.14293 8.45466 8.96231 8.89069 8.64082 9.21218C8.31933 9.53367 7.8833 9.71429 7.42864 9.71429C6.97398 9.71429 6.53795 9.53367 6.21646 9.21218C5.89497 8.89069 5.71436 8.45466 5.71436 8V5.71429C5.71436 5.25963 5.89497 4.82359 6.21646 4.5021C6.53795 4.18061 6.97398 4 7.42864 4Z" fill="#303030"/>
<path fill-rule="evenodd" clip-rule="evenodd" d="M8 6.8572C8 6.5416 8.25584 6.28577 8.57143 6.28577H21.1429C21.4584 6.28577 21.7143 6.5416 21.7143 6.8572C21.7143 7.17279 21.4584 7.42862 21.1429 7.42862H8.57143C8.25584 7.42862 8 7.17279 8 6.8572Z" fill="#303030"/>
<path fill-rule="evenodd" clip-rule="evenodd" d="M2.28564 6.8572C2.28564 6.5416 2.54148 6.28577 2.85707 6.28577H6.28564C6.60124 6.28577 6.85707 6.5416 6.85707 6.8572C6.85707 7.17279 6.60124 7.42862 6.28564 7.42862H2.85707C2.54148 7.42862 2.28564 7.17279 2.28564 6.8572Z" fill="#303030"/>
<path fill-rule="evenodd" clip-rule="evenodd" d="M7.42864 16.5714C7.27709 16.5714 7.13174 16.6316 7.02458 16.7388C6.91742 16.846 6.85721 16.9913 6.85721 17.1429V19.4286C6.85721 19.5801 6.91742 19.7255 7.02458 19.8327C7.13174 19.9398 7.27709 20 7.42864 20C7.58019 20 7.72554 19.9398 7.8327 19.8327C7.93987 19.7255 8.00007 19.5801 8.00007 19.4286V17.1429C8.00007 16.9913 7.93987 16.846 7.8327 16.7388C7.72554 16.6316 7.58019 16.5714 7.42864 16.5714ZM6.21646 15.9307C6.53795 15.6092 6.97398 15.4286 7.42864 15.4286C7.8833 15.4286 8.31933 15.6092 8.64082 15.9307C8.96231 16.2522 9.14293 16.6882 9.14293 17.1429V19.4286C9.14293 19.8832 8.96231 20.3193 8.64082 20.6408C8.31933 20.9623 7.8833 21.1429 7.42864 21.1429C6.97399 21.1429 6.53795 20.9623 6.21646 20.6408C5.89497 20.3193 5.71436 19.8832 5.71436 19.4286V17.1429C5.71436 16.6882 5.89497 16.2522 6.21646 15.9307Z" fill="#303030"/>
<path fill-rule="evenodd" clip-rule="evenodd" d="M8 18.2857C8 17.9701 8.25584 17.7142 8.57143 17.7142H21.1429C21.4584 17.7142 21.7143 17.9701 21.7143 18.2857C21.7143 18.6013 21.4584 18.8571 21.1429 18.8571H8.57143C8.25584 18.8571 8 18.6013 8 18.2857Z" fill="#303030"/>
<path fill-rule="evenodd" clip-rule="evenodd" d="M2.28564 18.2857C2.28564 17.9701 2.54148 17.7142 2.85707 17.7142H6.28564C6.60124 17.7142 6.85707 17.9701 6.85707 18.2857C6.85707 18.6013 6.60124 18.8571 6.28564 18.8571H2.85707C2.54148 18.8571 2.28564 18.6013 2.28564 18.2857Z" fill="#303030"/>
<path fill-rule="evenodd" clip-rule="evenodd" d="M16.5715 10.8571C16.4199 10.8571 16.2746 10.9173 16.1674 11.0245C16.0602 11.1316 16 11.277 16 11.4285V13.7142C16 13.8658 16.0602 14.0111 16.1674 14.1183C16.2746 14.2255 16.4199 14.2857 16.5715 14.2857C16.723 14.2857 16.8684 14.2255 16.9755 14.1183C17.0827 14.0111 17.1429 13.8658 17.1429 13.7142V11.4285C17.1429 11.277 17.0827 11.1316 16.9755 11.0245C16.8684 10.9173 16.723 10.8571 16.5715 10.8571ZM16.5715 9.71423C17.0261 9.71423 17.4622 9.89485 17.7836 10.2163C18.1051 10.5378 18.2857 10.9739 18.2857 11.4285V13.7142C18.2857 14.1689 18.1051 14.6049 17.7836 14.9264C17.4622 15.2479 17.0261 15.4285 16.5715 15.4285C16.1168 15.4285 15.6808 15.2479 15.3593 14.9264C15.0378 14.6049 14.8572 14.1689 14.8572 13.7142V11.4285C14.8572 10.9739 15.0378 10.5378 15.3593 10.2163C15.6808 9.89485 16.1168 9.71423 16.5715 9.71423Z" fill="#303030"/>
<path fill-rule="evenodd" clip-rule="evenodd" d="M2.28564 12.5714C2.28564 12.2558 2.54148 12 2.85707 12H15.4285C15.7441 12 15.9999 12.2558 15.9999 12.5714C15.9999 12.887 15.7441 13.1429 15.4285 13.1429H2.85707C2.54148 13.1429 2.28564 12.887 2.28564 12.5714Z" fill="#303030"/>
<path fill-rule="evenodd" clip-rule="evenodd" d="M17.1428 12.5714C17.1428 12.2558 17.3987 12 17.7143 12H21.1428C21.4584 12 21.7143 12.2558 21.7143 12.5714C21.7143 12.887 21.4584 13.1429 21.1428 13.1429H17.7143C17.3987 13.1429 17.1428 12.887 17.1428 12.5714Z" fill="#303030"/>
</svg>
