<svg width="39" height="27" viewBox="0 0 39 27" fill="none" xmlns="http://www.w3.org/2000/svg">
<rect x="0.214844" y="5.55383" width="35.0129" height="14" rx="7" fill="#FBA403" fill-opacity="0.2"/>
<g filter="url(#filter0_ddd_357_1958)">
<path fill-rule="evenodd" clip-rule="evenodd" d="M24.9297 22.5538C30.6171 22.5538 35.2276 18.0767 35.2276 12.5538C35.2276 7.03099 30.6171 2.55383 24.9297 2.55383C19.2424 2.55383 14.6318 7.03099 14.6318 12.5538C14.6318 18.0767 19.2424 22.5538 24.9297 22.5538Z" fill="#212121" fill-opacity="0.08"/>
</g>
<path fill-rule="evenodd" clip-rule="evenodd" d="M24.9297 22.5538C30.6171 22.5538 35.2276 18.0767 35.2276 12.5538C35.2276 7.03099 30.6171 2.55383 24.9297 2.55383C19.2424 2.55383 14.6318 7.03099 14.6318 12.5538C14.6318 18.0767 19.2424 22.5538 24.9297 22.5538Z" fill="#FBA403"/>
<defs>
<filter id="filter0_ddd_357_1958" x="11.6318" y="0.553833" width="26.5957" height="26" filterUnits="userSpaceOnUse" color-interpolation-filters="sRGB">
<feFlood flood-opacity="0" result="BackgroundImageFix"/>
<feColorMatrix in="SourceAlpha" type="matrix" values="0 0 0 0 0 0 0 0 0 0 0 0 0 0 0 0 0 0 127 0" result="hardAlpha"/>
<feOffset dy="1"/>
<feGaussianBlur stdDeviation="1.5"/>
<feColorMatrix type="matrix" values="0 0 0 0 0 0 0 0 0 0 0 0 0 0 0 0 0 0 0.2 0"/>
<feBlend mode="normal" in2="BackgroundImageFix" result="effect1_dropShadow_357_1958"/>
<feColorMatrix in="SourceAlpha" type="matrix" values="0 0 0 0 0 0 0 0 0 0 0 0 0 0 0 0 0 0 127 0" result="hardAlpha"/>
<feOffset dy="2"/>
<feGaussianBlur stdDeviation="0.5"/>
<feColorMatrix type="matrix" values="0 0 0 0 0 0 0 0 0 0 0 0 0 0 0 0 0 0 0.12 0"/>
<feBlend mode="normal" in2="effect1_dropShadow_357_1958" result="effect2_dropShadow_357_1958"/>
<feColorMatrix in="SourceAlpha" type="matrix" values="0 0 0 0 0 0 0 0 0 0 0 0 0 0 0 0 0 0 127 0" result="hardAlpha"/>
<feOffset dy="1"/>
<feGaussianBlur stdDeviation="0.5"/>
<feColorMatrix type="matrix" values="0 0 0 0 0 0 0 0 0 0 0 0 0 0 0 0 0 0 0.14 0"/>
<feBlend mode="normal" in2="effect2_dropShadow_357_1958" result="effect3_dropShadow_357_1958"/>
<feBlend mode="normal" in="SourceGraphic" in2="effect3_dropShadow_357_1958" result="shape"/>
</filter>
</defs>
</svg>
