<svg width="36" height="46" viewBox="0 0 36 46" fill="none" xmlns="http://www.w3.org/2000/svg">
<path d="M0.5 5.67259H4.81627C4.81627 5.67259 7.38789 5.53132 9.01404 7.52211L18.4385 19.584H11.8252C11.8252 19.584 8.89461 19.7141 7.70744 17.6941L0.5 5.67259Z" fill="url(#paint0_linear_2208_49814)"/>
<path d="M15.3488 30.5192L19.2295 37.0325C19.2295 37.0325 20.6559 40.3293 25.3679 40.3293H35.2667L21.249 23.1211L15.3488 24.4887C15.3488 24.4884 13.7258 26.6595 15.3488 30.5192Z" fill="url(#paint1_linear_2208_49814)"/>
<path d="M23.3576 25.7121L21.0858 22.9175L15.3607 24.4886C15.3607 24.4886 13.7377 26.6597 15.3607 30.5194L15.599 30.9311C15.5799 30.6759 15.4039 26.693 23.3576 25.7121Z" fill="url(#paint2_linear_2208_49814)"/>
<path d="M15.5814 30.9206C15.5814 30.9206 13.7879 26.2396 19.6397 23.9974C19.6397 23.9974 23.8081 22.4835 26.5964 23.3809C26.5964 23.3809 26.4035 19.9612 19.5565 20.1854C19.5565 20.1854 15.9409 20.1574 13.097 21.1666C13.097 21.1666 10.0876 21.9793 12.3238 25.4828L15.5814 30.9206Z" fill="url(#paint3_linear_2208_49814)"/>
<defs>
<linearGradient id="paint0_linear_2208_49814" x1="9.46927" y1="5.67037" x2="9.46927" y2="19.5856" gradientUnits="userSpaceOnUse">
<stop offset="0.033" stop-color="#19AADE"/>
<stop offset="0.951" stop-color="#134E8E"/>
</linearGradient>
<linearGradient id="paint1_linear_2208_49814" x1="24.9471" y1="23.1211" x2="24.9471" y2="40.3293" gradientUnits="userSpaceOnUse">
<stop offset="0.132" stop-color="#E02527"/>
<stop offset="0.742" stop-color="#A1141C"/>
</linearGradient>
<linearGradient id="paint2_linear_2208_49814" x1="14.6398" y1="26.9245" x2="23.3576" y2="26.9245" gradientUnits="userSpaceOnUse">
<stop offset="0.005" stop-color="#71251D"/>
<stop offset="0.742" stop-color="#C73127"/>
</linearGradient>
<linearGradient id="paint3_linear_2208_49814" x1="11.4977" y1="25.5476" x2="26.5967" y2="25.5476" gradientUnits="userSpaceOnUse">
<stop offset="0.148" stop-color="#E8EBEE"/>
<stop offset="0.742" stop-color="#95A5AF"/>
</linearGradient>
</defs>
</svg>
