<svg width="52" height="29" viewBox="0 0 52 29" fill="none" xmlns="http://www.w3.org/2000/svg">
<path d="M38.3118 11.7129H37.4523L31.6085 6.73918C31.2863 6.46506 30.8777 6.24378 30.413 6.0917C29.9482 5.93962 29.4392 5.86064 28.9235 5.8606H17.4321C16.0262 5.8606 14.7622 6.44327 14.24 7.3321L11.6662 11.7956C10.1857 12.0568 9.08765 12.9643 9.08765 14.0539V18.1505C9.08765 18.4739 9.47229 18.7358 9.94718 18.7358H12.5258C12.5258 20.6751 14.8347 22.2472 17.683 22.2472C20.5313 22.2472 22.8402 20.6751 22.8402 18.7358H29.7165C29.7165 20.6751 32.0254 22.2472 34.8737 22.2472C37.722 22.2472 40.0309 20.6751 40.0309 18.7358H42.6095C43.0844 18.7358 43.469 18.4739 43.469 18.1505V15.2244C43.469 13.285 41.1601 11.7129 38.3118 11.7129ZM17.683 20.4915C16.261 20.4915 15.1044 19.704 15.1044 18.7358C15.1044 17.7676 16.261 16.9801 17.683 16.9801C19.105 16.9801 20.2616 17.7676 20.2616 18.7358C20.2616 19.704 19.105 20.4915 17.683 20.4915ZM21.5509 11.7129H15.3692L17.4321 8.20154H21.5509V11.7129ZM24.1295 11.7129V8.20154H28.9235L33.0493 11.7129H24.1295ZM34.8737 20.4915C33.4517 20.4915 32.2951 19.704 32.2951 18.7358C32.2951 17.7676 33.4517 16.9801 34.8737 16.9801C36.2957 16.9801 37.4523 17.7676 37.4523 18.7358C37.4523 19.704 36.2957 20.4915 34.8737 20.4915Z" fill="#FBA403"/>
</svg>
