<svg width="100" height="64" viewBox="0 0 100 64" fill="none" xmlns="http://www.w3.org/2000/svg">
<path d="M1.63001 11.0851C1.75001 11.0651 1.87001 11.0451 2.01001 11.0051C2.57001 10.8651 3.27001 10.725 4.11001 10.5851C4.95001 10.4451 5.79001 10.385 6.67001 10.405C6.85001 10.405 7.01001 10.3251 7.13001 10.1451C7.23001 9.96505 7.27001 9.76505 7.23001 9.54505C9.85001 8.98505 12.49 8.52505 15.19 8.14505C14.91 8.56505 14.63 8.94505 14.41 9.26505C14.09 9.70505 13.77 10.1451 13.47 10.5851C13.17 11.0251 12.85 11.5451 12.47 12.1651C12.07 12.805 11.59 13.6851 11.01 14.8051C10.45 15.9451 9.85001 17.2251 9.25001 18.6451C8.63001 20.0851 8.23001 21.545 8.01001 23.025C7.81001 24.525 7.93001 25.5651 8.41001 26.1651C8.87001 26.625 9.47001 26.785 10.19 26.6451C10.57 26.525 10.79 26.325 10.83 26.005C10.85 25.705 10.69 25.4851 10.31 25.365C10.19 25.345 10.09 25.3251 10.01 25.3251C9.89001 25.3451 9.81001 25.3251 9.73001 25.305C9.65001 25.265 9.59001 25.1851 9.53001 25.0651C9.45001 24.8451 9.41001 24.565 9.39001 24.265C9.39001 23.965 9.41001 23.685 9.43001 23.445C9.77001 21.245 10.57 18.9051 11.83 16.425C13.07 13.945 14.39 11.7651 15.75 9.84505C15.79 9.80505 15.83 9.74505 15.87 9.68505L16.39 8.96505C16.61 8.68505 16.81 8.42505 17.03 8.20505C17.23 7.96505 17.41 7.84505 17.55 7.82505L19.79 7.54505C21.27 7.36505 22.65 7.20505 23.95 7.10505C25.25 7.00505 26.83 6.96505 28.69 7.00505C28.83 7.00505 28.95 7.00505 29.09 7.02505C29.21 7.04505 29.35 7.06505 29.47 7.06505C29.77 7.04505 29.99 6.96505 30.15 6.78505C30.29 6.60505 30.35 6.42505 30.31 6.22505C30.27 6.00505 30.11 5.86505 29.83 5.76505C29.23 5.60505 28.29 5.54505 27.01 5.60505C25.73 5.64505 24.41 5.72505 23.01 5.86505C21.63 5.98505 20.49 6.10505 19.59 6.20505C19.31 6.24505 19.09 6.26505 18.91 6.28505C18.93 5.80505 18.79 5.52505 18.47 5.44505C18.17 5.36505 17.87 5.40505 17.57 5.58505C17.27 5.78505 17.07 5.98505 16.91 6.18505C16.81 6.30505 16.71 6.40505 16.61 6.48505C16.49 6.58505 16.37 6.62505 16.21 6.64505C15.25 6.78505 13.73 7.00505 11.65 7.36505C9.57001 7.70505 7.51001 8.10505 5.49001 8.56505C3.45001 9.00505 2.03001 9.46505 1.21001 9.92505C0.870009 10.1851 0.750009 10.445 0.850009 10.745C0.950009 11.0251 1.21001 11.1451 1.63001 11.0851ZM19.4276 19.6451C19.7676 19.5851 20.1876 19.3651 20.6876 19.0451C21.2076 18.7051 21.6676 18.3651 22.1076 18.0251C22.5476 17.6651 22.8076 17.4451 22.9076 17.3251C22.6876 17.8051 22.3676 18.5851 21.9476 19.6051C21.5076 20.6451 21.1676 21.525 20.9276 22.285C20.8276 22.605 20.9076 22.865 21.1276 23.045C21.3476 23.2451 21.5876 23.305 21.8676 23.285C22.1476 23.245 22.3476 23.085 22.4276 22.785C22.8676 20.885 23.7476 18.665 25.0476 16.085C26.3476 13.505 27.8876 10.845 29.6676 8.08505C29.8876 7.70505 29.9076 7.38505 29.7276 7.12505C29.5476 6.86505 29.3076 6.72505 28.9876 6.70505C28.6676 6.68505 28.4076 6.82505 28.1876 7.14505C27.2276 8.86505 26.4876 10.185 26.0076 11.105C25.6476 11.805 25.3076 12.4051 25.0076 12.9251C24.7076 13.4451 24.3476 13.9851 23.9476 14.5451C23.3476 15.3851 22.4676 16.305 21.2676 17.265C20.5676 17.845 20.0476 18.165 19.7476 18.265C19.4276 18.3651 19.2276 18.305 19.1876 18.085C19.1476 17.865 19.1676 17.5851 19.2876 17.2251C19.3876 16.8451 19.5276 16.5051 19.6676 16.1651C19.8276 15.8051 19.9476 15.5651 20.0276 15.4051C20.0876 15.2851 20.0476 15.1451 19.9476 15.0051C19.8476 14.8651 19.7076 14.7651 19.5476 14.6851C19.3876 14.6051 19.2276 14.6051 19.1076 14.6651C18.9276 14.7651 18.7076 14.9251 18.4876 15.1251C17.8476 14.5051 17.1476 14.5251 16.3876 15.2051C14.2876 16.9651 13.1076 18.3851 12.8476 19.4851C12.5876 20.5851 12.8876 21.0251 13.7276 20.7851C14.0476 20.6451 14.4676 20.365 14.9876 19.925C15.5276 19.4851 16.0676 19.005 16.6076 18.5251C17.1276 18.0251 17.5676 17.6451 17.9076 17.3651C17.7276 18.265 17.8076 18.8851 18.1276 19.2451C18.4676 19.6051 18.9076 19.7451 19.4276 19.6451ZM15.0076 18.2451L15.2476 17.9651C15.4076 17.7851 15.6076 17.5851 15.8276 17.3651C16.0676 17.1251 16.2676 16.9451 16.4676 16.765C16.6676 16.6051 16.8076 16.5251 16.8876 16.5251C16.8076 16.6251 16.6676 16.765 16.4876 16.9451C16.2876 17.1451 16.0676 17.3451 15.8476 17.5451C15.6276 17.7651 15.4276 17.9251 15.2676 18.0651C15.1076 18.2051 15.0076 18.2651 15.0076 18.2451ZM34.1322 9.52505C34.5922 8.70505 35.0322 8.00505 35.4522 7.40505C35.6922 7.02505 35.8722 6.74505 35.9722 6.56505C36.1122 6.30505 36.0922 6.06505 35.9722 5.84505C35.8322 5.62505 35.6322 5.54505 35.3322 5.56505C35.0522 5.58505 34.7322 5.82505 34.3722 6.26505C30.9922 10.885 28.2522 15.805 26.1922 21.0251L26.1322 21.1651C25.7922 21.9651 25.4522 22.865 25.1522 23.885C25.0922 24.125 25.1722 24.305 25.3922 24.445C25.5922 24.585 25.8322 24.6451 26.0922 24.625C26.3322 24.625 26.5122 24.5251 26.5922 24.3251C26.8722 23.4451 27.2722 22.4051 27.7522 21.1851C28.2522 19.965 28.6922 18.9251 29.0722 18.0651C29.3722 18.5451 29.9922 18.7851 30.9322 18.765C31.8722 18.745 33.0122 18.5651 34.3322 18.2451C35.6322 17.9051 36.7122 17.5651 37.5122 17.2251C37.7722 17.1051 37.8922 16.965 37.9322 16.765C37.9522 16.5651 37.8722 16.4051 37.7322 16.265C37.5722 16.1451 37.3722 16.1051 37.1122 16.1651C36.3722 16.4451 35.6122 16.6851 34.8322 16.8851C34.0522 17.0851 33.3522 17.245 32.7122 17.345C32.0722 17.4451 31.5122 17.4851 31.0322 17.4651C30.5522 17.4451 30.4522 17.285 30.7322 17.005C31.3722 16.465 32.1722 16.0451 33.1122 15.7251C33.3922 15.6051 33.5122 15.4051 33.5122 15.1451C33.4922 14.8851 33.3922 14.6651 33.1722 14.4851C32.9722 14.305 32.7122 14.2451 32.4122 14.3451C32.0522 14.4851 31.6722 14.7051 31.2522 15.0051C30.8322 15.2851 30.5322 15.5051 30.3322 15.6651C30.3522 15.4651 30.5722 14.9851 30.9922 14.2451C31.3922 13.4851 31.8322 12.725 32.2922 11.945C32.7522 11.1851 33.0722 10.6651 33.2322 10.3851C33.3322 10.2451 33.4122 10.145 33.4722 10.105C33.5322 10.065 33.5922 10.025 33.6522 10.025C33.7122 10.005 33.7922 9.96505 33.8722 9.90505C33.9322 9.84505 34.0322 9.72505 34.1322 9.52505ZM37.6344 14.5651C37.2744 15.005 36.8344 15.6851 36.2944 16.585C35.7544 17.485 35.4944 18.325 35.5144 19.085C35.7344 20.1451 36.2544 20.6651 37.0944 20.6451C37.9344 20.6251 38.8744 20.3251 39.9344 19.7251C40.9944 19.1251 41.9544 18.4851 42.8344 17.7851C43.7144 17.0851 44.2944 16.5851 44.6144 16.2851C44.7944 16.0851 44.8744 15.9251 44.8344 15.7651C44.7944 15.6051 44.7144 15.5051 44.5544 15.4451C44.4144 15.385 44.2544 15.425 44.0944 15.5251C44.0744 15.5451 44.0344 15.5851 43.9544 15.6451C43.6744 15.8651 43.1744 16.2651 42.4344 16.8051C41.6944 17.3451 40.8944 17.8651 40.0144 18.3651C39.1344 18.8651 38.3144 19.165 37.5944 19.265C37.1144 19.305 36.9144 19.1251 36.9944 18.7251C37.0544 18.3251 37.2944 17.8251 37.6744 17.2451C38.0544 16.6451 38.4544 16.0651 38.8944 15.5051C39.0544 15.2451 39.0544 15.0251 38.8944 14.8051C38.7344 14.6051 38.5344 14.4651 38.2744 14.4051C37.9944 14.345 37.7944 14.385 37.6344 14.5651ZM38.8144 13.3451C38.7344 13.7051 38.7544 13.925 38.8744 13.9851C39.0544 14.0251 39.3344 13.9251 39.7144 13.6451C40.0944 13.3851 40.4544 13.0651 40.8144 12.6851C41.1544 12.3251 41.3744 12.0051 41.4744 11.7651C41.5344 11.5451 41.4544 11.405 41.2344 11.325C41.0344 11.245 40.7944 11.2051 40.5344 11.2251C40.2744 11.2251 40.0744 11.285 39.9544 11.365C39.7144 11.545 39.4744 11.8451 39.2744 12.2251C39.0544 12.6251 38.9144 13.0051 38.8144 13.3451ZM44.2611 14.4651C43.3211 16.0451 42.5411 17.5051 41.9211 18.8851C41.8211 19.1651 41.8411 19.4051 41.9811 19.6251C42.1211 19.8251 42.3211 19.9651 42.5411 20.0451C42.7811 20.1251 42.9811 20.0851 43.1611 19.9651C43.3611 19.7651 43.7211 19.385 44.2411 18.845L45.6411 17.425C46.1211 16.9451 46.5211 16.545 46.8411 16.265C47.1811 15.9851 47.3211 15.9051 47.3011 16.0451C47.2411 16.2051 47.1611 16.385 47.0611 16.6051C46.8011 17.125 46.6011 17.6851 46.4411 18.2851C46.2811 18.8851 46.3811 19.3051 46.7811 19.5651C47.4411 19.8451 48.3411 19.665 49.4611 19.085C50.5811 18.485 51.5811 17.8451 52.5011 17.1251C52.7211 16.9451 52.8211 16.7651 52.8211 16.5651C52.8011 16.3651 52.7211 16.2251 52.5611 16.1251C52.4011 16.0451 52.2011 16.0651 51.9811 16.2251C51.9611 16.2251 51.9411 16.2451 51.9411 16.2451C51.7211 16.4051 51.3611 16.6651 50.8211 17.0251C50.3011 17.385 49.7611 17.7051 49.2011 17.9851C48.6411 18.2651 48.2211 18.3651 47.9211 18.2851C47.8411 18.2451 47.8611 18.0451 48.0211 17.7251C48.1611 17.4051 48.3411 17.0451 48.5611 16.6251L49.0011 15.7851C49.1211 15.5251 49.2011 15.3251 49.2411 15.1651C49.2811 14.9651 49.2211 14.7451 49.0811 14.5451C48.9411 14.3251 48.7811 14.1651 48.5611 14.0451C48.3611 13.9251 48.1611 13.885 47.9811 13.9451C47.7611 14.0451 47.4011 14.3051 46.9211 14.7051C46.4411 15.0851 45.9611 15.5051 45.5011 15.9251C45.0211 16.3451 44.7011 16.6451 44.5011 16.845C44.5011 16.765 44.5611 16.6451 44.6611 16.4651C44.7811 16.3051 44.9211 16.1051 45.0811 15.8651C45.2211 15.6851 45.3611 15.4651 45.5011 15.2651C45.6211 15.0651 45.6011 14.8651 45.4611 14.6451C45.3011 14.4451 45.1011 14.3051 44.8611 14.2451C44.6211 14.1851 44.4211 14.2651 44.2611 14.4651ZM48.8525 30.8251C49.6725 29.8251 50.4725 28.725 51.2325 27.525C51.9125 26.4851 52.4325 25.745 52.8325 25.345L53.9525 24.265C56.4125 21.785 59.4525 19.125 63.0725 16.265C63.3125 16.0651 63.4325 15.8251 63.4125 15.5451C63.4125 15.2851 63.3325 15.0651 63.1725 14.9051C63.0125 14.7451 62.8325 14.7451 62.6125 14.9051C60.6125 16.5251 58.8925 18.005 57.4725 19.345C56.4525 20.265 55.6925 20.9251 55.1525 21.3651C55.3325 21.0851 55.6725 20.4651 56.1525 19.4851C56.6325 18.5251 57.0325 17.5251 57.3725 16.4851C57.7125 15.4451 57.7525 14.6851 57.5125 14.2251C57.3925 14.0451 57.2325 13.965 57.0525 13.9851C56.8525 14.0051 56.6725 14.0651 56.5125 14.1851L56.1525 14.4251C56.1325 14.4251 56.1325 14.4451 56.1125 14.4451C56.0125 14.385 55.8925 14.265 55.7725 14.1051C55.6725 13.9851 55.5725 13.8651 55.4525 13.7451C55.3325 13.6451 55.1925 13.5851 55.0325 13.5851C54.6125 13.6251 54.0525 13.9451 53.3725 14.5451C52.6725 15.1651 52.0125 15.8451 51.3725 16.6251C50.7125 17.4051 50.2125 18.0651 49.8925 18.6251C49.5325 19.2451 49.3925 19.765 49.4525 20.1851C49.5325 20.6051 49.8325 20.7651 50.3525 20.6451C50.7125 20.5251 51.2125 20.205 51.8325 19.6851C52.4525 19.1651 53.0925 18.5851 53.7725 17.9451C54.7325 17.0451 55.5325 16.3451 56.1725 15.8851C55.8325 17.1451 55.3725 18.2851 54.8125 19.3051C54.2325 20.3251 53.5725 21.3451 52.8525 22.4051C52.7325 22.5851 52.5925 22.785 52.4725 22.9851C51.9725 23.6651 51.2725 24.445 50.3925 25.305C49.4325 26.225 48.4725 27.285 47.4925 28.4851C47.2125 28.9051 47.1325 29.3651 47.2725 29.8251C47.3925 30.305 47.6125 30.6451 47.9325 30.885C48.2525 31.125 48.5725 31.1051 48.8525 30.8251Z" fill="#3E3E3E"/>
<path d="M20.119 42.0651H15.189V57.8751H8.38898V42.0651H3.45898V36.6251H20.119V42.0651ZM21.989 40.8751H25.389L27.259 42.7791C28.5963 41.5551 30.2736 40.7504 32.291 40.3651L32.699 46.7911C32.155 46.8138 31.441 46.9498 30.557 47.1991C29.6956 47.4484 29.1063 47.7658 28.789 48.1511V57.8751H21.989V40.8751ZM42.797 40.3651C48.237 40.3651 50.957 42.2351 50.957 45.9751V57.8751H47.557L45.619 55.9371C44.9616 56.7078 44.0663 57.3084 42.933 57.7391C41.7996 58.1698 40.723 58.3851 39.703 58.3851C38.7056 58.3851 37.901 58.3058 37.289 58.1471C36.677 57.9884 36.0763 57.7164 35.487 57.3311C34.195 56.5151 33.549 54.9964 33.549 52.7751C33.549 48.6951 36.6316 46.6551 42.797 46.6551H44.157V45.4311C43.4316 45.3858 42.831 45.3631 42.355 45.3631C39.7936 45.3631 37.595 45.6691 35.759 46.2811L34.943 41.4191C37.2096 40.7164 39.8276 40.3651 42.797 40.3651ZM40.417 52.0271V53.4211H41.811C42.8083 53.4211 43.443 53.3078 43.715 53.0811C44.0096 52.8544 44.157 52.5598 44.157 52.1971V50.5991H42.763C41.947 50.5991 41.3463 50.6898 40.961 50.8711C40.5983 51.0298 40.417 51.4151 40.417 52.0271ZM56.58 57.8751L52.33 40.8751H59.13L61 51.9251H61.34L63.21 40.8751H70.01L65.76 57.8751H56.58ZM78.324 52.0951V53.2851C79.004 53.3531 79.684 53.3871 80.364 53.3871C82.472 53.3871 84.6027 53.0471 86.756 52.3671L87.572 57.3651C85.0334 58.0451 82.5174 58.3851 80.024 58.3851C76.8507 58.3851 74.55 57.6484 73.122 56.1751C71.7167 54.6791 71.014 52.4124 71.014 49.3751C71.014 46.3378 71.7167 44.0824 73.122 42.6091C74.55 41.1131 76.8394 40.3651 79.99 40.3651C83.1634 40.3651 85.3507 40.7958 86.552 41.6571C87.7534 42.5184 88.354 44.1278 88.354 46.4851C88.354 48.4798 87.6287 49.9191 86.178 50.8031C84.75 51.6644 82.132 52.0951 78.324 52.0951ZM78.324 46.7571V48.1511H79.718C80.534 48.1511 81.1234 48.0718 81.486 47.9131C81.8714 47.7318 82.064 47.3351 82.064 46.7231V45.3291H80.67C79.854 45.3291 79.2534 45.4198 78.868 45.6011C78.5054 45.7598 78.324 46.1451 78.324 46.7571ZM97.7187 35.2651V53.0131C98.444 53.1491 98.9993 53.2284 99.3847 53.2511L99.0787 58.2491C96.1773 58.2491 94.262 58.0791 93.3327 57.7391C92.1767 57.3084 91.4627 56.7644 91.1907 56.1071C91.0093 55.6991 90.9187 55.2231 90.9187 54.6791V35.7751L97.7187 35.2651Z" fill="#8A53FF"/>
</svg>
