<svg width="24" height="24" viewBox="0 0 24 24" fill="none" xmlns="http://www.w3.org/2000/svg">
<path d="M12.0001 5.14307C11.1524 5.14307 10.3238 5.39442 9.61906 5.86534C8.91427 6.33626 8.36496 7.0056 8.04059 7.78871C7.71621 8.57182 7.63134 9.43353 7.79671 10.2649C7.96207 11.0962 8.37025 11.8599 8.96961 12.4592C9.56898 13.0586 10.3326 13.4668 11.164 13.6321C11.9953 13.7975 12.857 13.7126 13.6401 13.3883C14.4233 13.0639 15.0926 12.5146 15.5635 11.8098C16.0344 11.105 16.2858 10.2764 16.2858 9.42878C16.2858 8.29214 15.8343 7.20205 15.0305 6.39832C14.2268 5.5946 13.1367 5.14307 12.0001 5.14307ZM12.0001 12.0002C11.4915 12.0002 10.9943 11.8494 10.5715 11.5668C10.1486 11.2843 9.81901 10.8827 9.62438 10.4128C9.42976 9.94296 9.37883 9.42593 9.47805 8.92712C9.57727 8.42831 9.82218 7.97013 10.1818 7.61051C10.5414 7.25088 10.9996 7.00598 11.4984 6.90676C11.9972 6.80754 12.5142 6.85846 12.9841 7.05309C13.454 7.24772 13.8556 7.5773 14.1381 8.00017C14.4207 8.42304 14.5715 8.9202 14.5715 9.42878C14.5708 10.1106 14.2997 10.7642 13.8176 11.2463C13.3355 11.7284 12.6818 11.9995 12.0001 12.0002Z" fill="#8A53FF"/>
<path d="M12 0C9.62663 0 7.30655 0.703788 5.33316 2.02236C3.35977 3.34094 1.8217 5.21508 0.913451 7.4078C0.0051994 9.60051 -0.232441 12.0133 0.230582 14.3411C0.693605 16.6689 1.83649 18.807 3.51472 20.4853C5.19295 22.1635 7.33115 23.3064 9.65892 23.7694C11.9867 24.2324 14.3995 23.9948 16.5922 23.0865C18.7849 22.1783 20.6591 20.6402 21.9776 18.6668C23.2962 16.6934 24 14.3734 24 12C23.9964 8.81851 22.7309 5.76838 20.4813 3.51873C18.2316 1.26908 15.1815 0.00362976 12 0ZM6.85715 20.8946V19.7143C6.85783 19.0325 7.12896 18.3788 7.61105 17.8968C8.09314 17.4147 8.7468 17.1435 9.42858 17.1429H14.5714C15.2532 17.1435 15.9069 17.4147 16.389 17.8968C16.871 18.3788 17.1422 19.0325 17.1429 19.7143V20.8946C15.5821 21.8059 13.8073 22.2861 12 22.2861C10.1927 22.2861 8.41786 21.8059 6.85715 20.8946ZM18.8503 19.6509C18.8332 18.5266 18.3751 17.454 17.5748 16.6642C16.7744 15.8744 15.6958 15.4307 14.5714 15.4286H9.42858C8.30416 15.4307 7.22558 15.8744 6.42522 16.6642C5.62487 17.454 5.1668 18.5266 5.14972 19.6509C3.59535 18.2629 2.4992 16.4356 2.00643 14.4109C1.51367 12.3861 1.64752 10.2594 2.39027 8.31245C3.13301 6.36546 4.44962 4.69 6.16575 3.50791C7.88188 2.32583 9.91658 1.69288 12.0004 1.69288C14.0843 1.69288 16.119 2.32583 17.8351 3.50791C19.5512 4.69 20.8678 6.36546 21.6106 8.31245C22.3533 10.2594 22.4872 12.3861 21.9944 14.4109C21.5017 16.4356 20.4055 18.2629 18.8511 19.6509H18.8503Z" fill="#8A53FF"/>
</svg>
