<svg width="36" height="46" viewBox="0 0 36 46" fill="none" xmlns="http://www.w3.org/2000/svg">
<path fill-rule="evenodd" clip-rule="evenodd" d="M35.0003 25.9755C35.1779 24.9921 35.2671 23.9954 35.2668 22.9967C35.2668 22.3818 35.2328 21.8031 35.1673 21.2508C35.1533 21.1311 33.1708 25.1058 29.999 27.6235C32.2055 25.6902 35.0837 20.6461 35.0431 20.4274C35.0082 20.2376 34.9688 20.0486 34.9249 19.8606C34.5457 18.2336 33.8618 16.7874 32.9298 15.2152C32.641 18.5518 31.6317 22.1062 28.9836 25.1799C31.7319 21.9545 32.6881 14.6084 32.0332 13.5967C29.3972 9.55476 23.8466 6.01709 17.9042 6.01709L17.8624 6.12376V6.02456C11.9198 6.02456 6.36962 9.56202 3.73362 13.6038C3.07854 14.6154 4.03474 21.9616 6.783 25.1869C4.13511 22.1133 3.12565 18.5588 2.83706 15.2222C1.90442 16.7947 1.22091 18.2405 0.841696 19.8677C0.79781 20.0557 0.7584 20.2446 0.723498 20.4344C0.682967 20.6532 3.56131 25.6973 5.76781 27.6305C2.59578 25.1127 0.613364 21.1379 0.599147 21.2579C0.531661 21.8375 0.498573 22.4204 0.500047 23.0038C0.500047 24.02 0.591295 25.0153 0.766364 25.9826C0.928276 26.8772 4.61491 29.3403 4.7104 29.4177C2.03259 28.3947 0.927003 26.7855 1.02759 27.1742C2.92852 34.5353 9.74474 39.9832 17.8624 39.9832V39.9756L17.9042 39.976C26.0219 39.976 32.8381 34.5285 34.7388 27.1669C34.8396 26.7782 33.7342 28.3874 31.0562 29.4105C31.1515 29.3333 34.8381 26.8704 35.0003 25.9755ZM23.5168 26.6292C23.3415 26.7037 23.1641 26.7679 22.9825 26.816C21.3179 27.2595 19.0036 27.0966 17.9216 25.7143C16.8271 24.316 17.1301 22.0477 17.981 20.616C18.8402 19.1706 20.13 18.0965 21.2761 16.88C21.8252 16.2996 22.3847 15.7287 22.9543 15.1675C23.3239 14.8016 24.3327 14.0176 24.3119 13.4946C24.3024 13.247 23.8423 12.8108 23.7144 12.5765C23.5278 12.2351 23.4113 11.8931 23.2117 11.568C22.7699 10.8499 22.1767 10.521 21.378 10.367C20.3796 10.1746 19.6634 10.2603 18.8364 10.802C18.2142 11.2096 17.5666 11.9695 16.8067 12.0496C15.606 12.1762 10.3775 13.0239 10.1299 13.1771C10.7748 13.1304 18.6586 13.2796 19.5518 13.4946C20.602 13.7474 20.5544 14.575 19.8414 15.226C17.5991 17.2728 14.2959 18.491 12.8877 21.3073C12.229 22.624 11.8065 23.5155 11.8048 25.0556C11.8042 25.6902 11.8549 26.9924 12.6566 28.6094C12.6195 28.5856 11.3895 27.1669 11.3401 25.9668C8.37305 24.0265 6.86406 21.1249 6.86406 17.3488C6.86406 11.3631 11.7798 6.51058 17.8435 6.51058C23.9073 6.51058 28.8228 11.3629 28.8228 17.3488C28.8232 21.2849 27.1026 24.9259 23.5168 26.6292Z" fill="#B4282E"/>
<path fill-rule="evenodd" clip-rule="evenodd" d="M18.3186 29.917L16.8862 33.7659C16.0605 35.9842 12.5558 35.5181 12.4325 35.5181C12.1445 35.5181 11.9242 35.4869 11.704 35.2834L12.2285 34.7123C12.3535 34.8063 12.5492 34.8611 12.7491 34.8611C12.9125 34.8611 14.7133 35.2433 15.2501 33.7659L16.6825 29.917H18.3186ZM28.4335 34.7436L28.1918 35.3929H23.2638L25.3018 29.917H26.9555L25.1588 34.7436H28.4335ZM21.0868 29.9307L16.7207 35.4062H17.5687L18.6738 33.9199H20.6516L20.322 35.4062H22.064L23.402 29.9307H21.0868ZM19.2493 33.1434L21.5019 30.4476L20.8814 33.1434H19.2493Z" fill="white"/>
</svg>
