<svg width="42" height="29" viewBox="0 0 42 29" fill="none" xmlns="http://www.w3.org/2000/svg">
<path d="M27.6785 7.05383L25.9962 7.92883L30.202 11.7205H23.4727V9.9705H20.9492V11.7205H5.80826C3.94087 11.7205 2.4436 12.7588 2.4436 14.0538V17.5538H5.80826C5.80826 18.4821 6.33999 19.3723 7.28648 20.0287C8.23298 20.6851 9.5167 21.0538 10.8552 21.0538C12.1938 21.0538 13.4775 20.6851 14.424 20.0287C15.3705 19.3723 15.9022 18.4821 15.9022 17.5538H25.9962C25.9962 18.4821 26.5279 19.3723 27.4744 20.0287C28.4209 20.6851 29.7046 21.0538 31.0432 21.0538C32.3817 21.0538 33.6654 20.6851 34.6119 20.0287C35.5584 19.3723 36.0901 18.4821 36.0901 17.5538H39.4548V14.0538C39.4548 12.7588 37.9575 11.7205 36.0901 11.7205H32.7255L27.6785 7.05383ZM10.8552 15.8038C11.5245 15.8038 12.1664 15.9882 12.6396 16.3164C13.1129 16.6446 13.3787 17.0897 13.3787 17.5538C13.3787 18.018 13.1129 18.4631 12.6396 18.7913C12.1664 19.1195 11.5245 19.3038 10.8552 19.3038C10.186 19.3038 9.54411 19.1195 9.07086 18.7913C8.59762 18.4631 8.33175 18.018 8.33175 17.5538C8.33175 17.0897 8.59762 16.6446 9.07086 16.3164C9.54411 15.9882 10.186 15.8038 10.8552 15.8038V15.8038ZM31.0432 15.8038C31.7124 15.8038 32.3543 15.9882 32.8275 16.3164C33.3008 16.6446 33.5667 17.0897 33.5667 17.5538C33.5667 18.018 33.3008 18.4631 32.8275 18.7913C32.3543 19.1195 31.7124 19.3038 31.0432 19.3038C30.3739 19.3038 29.732 19.1195 29.2588 18.7913C28.7855 18.4631 28.5197 18.018 28.5197 17.5538C28.5197 17.0897 28.7855 16.6446 29.2588 16.3164C29.732 15.9882 30.3739 15.8038 31.0432 15.8038Z" fill="#FBA403"/>
</svg>
