<svg width="40" height="29" viewBox="0 0 40 29" fill="none" xmlns="http://www.w3.org/2000/svg">
<path d="M20.3921 9.97058H12.2544L7.37184 12.8872H5.74431C3.93776 12.8872 2.48926 13.9256 2.48926 15.2206V18.7206H6.02099C6.72083 20.1206 8.55994 21.0539 10.6269 21.0539C12.6939 21.0539 14.533 20.1206 15.2165 18.7206H25.5513C26.2512 20.1206 28.0903 21.0539 30.1572 21.0539C32.2242 21.0539 34.0633 20.1206 34.7469 18.7206H38.2949V17.5539C38.2949 16.2589 36.6185 15.8389 35.0398 15.2206L20.3921 9.97058ZM9.40625 14.0539L13.0682 11.7206H19.5783L26.0884 14.0539H9.40625ZM10.6269 15.8039C11.2744 15.8039 11.8953 15.9883 12.3532 16.3165C12.811 16.6447 13.0682 17.0898 13.0682 17.5539C13.0682 18.018 12.811 18.4632 12.3532 18.7914C11.8953 19.1195 11.2744 19.3039 10.6269 19.3039C9.97943 19.3039 9.35847 19.1195 8.90064 18.7914C8.44281 18.4632 8.18561 18.018 8.18561 17.5539C8.18561 17.0898 8.44281 16.6447 8.90064 16.3165C9.35847 15.9883 9.97943 15.8039 10.6269 15.8039V15.8039ZM30.1572 15.8039C30.8047 15.8039 31.4257 15.9883 31.8835 16.3165C32.3413 16.6447 32.5985 17.0898 32.5985 17.5539C32.5985 18.018 32.3413 18.4632 31.8835 18.7914C31.4257 19.1195 30.8047 19.3039 30.1572 19.3039C29.5098 19.3039 28.8888 19.1195 28.431 18.7914C27.9732 18.4632 27.7159 18.018 27.7159 17.5539C27.7159 17.0898 27.9732 16.6447 28.431 16.3165C28.8888 15.9883 29.5098 15.8039 30.1572 15.8039Z" fill="#FBA403"/>
</svg>
