<svg width="44" height="29" viewBox="0 0 44 29" fill="none" xmlns="http://www.w3.org/2000/svg">
<path d="M5.91184 8.22058C3.94795 8.22058 2.37329 9.25891 2.37329 10.5539V19.8872H5.91184C5.91184 20.8155 6.47106 21.7057 7.46647 22.3621C8.46188 23.0185 9.81194 23.3872 11.2197 23.3872C12.6274 23.3872 13.9775 23.0185 14.9729 22.3621C15.9683 21.7057 16.5275 20.8155 16.5275 19.8872H27.1431C27.1431 20.8155 27.7024 21.7057 28.6978 22.3621C29.6932 23.0185 31.0432 23.3872 32.451 23.3872C33.8587 23.3872 35.2087 23.0185 36.2042 22.3621C37.1996 21.7057 37.7588 20.8155 37.7588 19.8872H41.2973V15.2206C41.2973 13.9256 39.7227 12.8872 37.7588 12.8872L32.451 8.22058H5.91184ZM5.91184 9.97058H12.9889V12.8872H5.91184V9.97058ZM16.5275 9.97058H23.6046V12.8872H16.5275V9.97058ZM27.1431 9.97058H31.5663L35.0341 12.8872H27.1431V9.97058ZM11.2197 18.1372C11.9235 18.1372 12.5986 18.3216 13.0963 18.6498C13.594 18.978 13.8736 19.4231 13.8736 19.8872C13.8736 20.3514 13.594 20.7965 13.0963 21.1247C12.5986 21.4529 11.9235 21.6372 11.2197 21.6372C10.5158 21.6372 9.84077 21.4529 9.34306 21.1247C8.84536 20.7965 8.56575 20.3514 8.56575 19.8872C8.56575 19.4231 8.84536 18.978 9.34306 18.6498C9.84077 18.3216 10.5158 18.1372 11.2197 18.1372V18.1372ZM32.451 18.1372C33.1548 18.1372 33.8299 18.3216 34.3276 18.6498C34.8253 18.978 35.1049 19.4231 35.1049 19.8872C35.1049 20.3514 34.8253 20.7965 34.3276 21.1247C33.8299 21.4529 33.1548 21.6372 32.451 21.6372C31.7471 21.6372 31.0721 21.4529 30.5744 21.1247C30.0767 20.7965 29.797 20.3514 29.797 19.8872C29.797 19.4231 30.0767 18.978 30.5744 18.6498C31.0721 18.3216 31.7471 18.1372 32.451 18.1372Z" fill="#FBA403"/>
</svg>
