<svg width="36" height="46" viewBox="0 0 36 46" fill="none" xmlns="http://www.w3.org/2000/svg">
<path fill-rule="evenodd" clip-rule="evenodd" d="M17.8841 8.08396C9.27562 8.08396 2.23065 15.2873 2.23065 24.2575C2.23065 33.2269 9.27625 40.4296 17.8841 40.4296C26.4912 40.4296 33.5362 33.227 33.5362 24.2575C33.5362 15.2872 26.4905 8.08396 17.8841 8.08396ZM0.67688 24.2575C0.67688 14.5242 8.34162 6.56445 17.8841 6.56445C27.4245 6.56445 35.0899 14.5243 35.0899 24.2575C35.0899 33.9901 27.4252 41.9491 17.8841 41.9491C8.34241 41.9491 0.67688 33.9901 0.67688 24.2575Z" fill="#CF4037"/>
<path fill-rule="evenodd" clip-rule="evenodd" d="M22.8444 20.5448C22.0874 15.2974 17.664 12.7063 14.9009 11.1542C12.3366 9.71456 10.0407 9.06036 9.98531 9.22912C12.9018 11.5743 14.7745 15.228 14.7745 19.333C14.7745 26.0645 9.73534 31.5834 3.3335 32.0987L3.73828 32.7238C11.9339 31.4473 33.8664 27.3756 33.8664 27.3756L33.9246 26.8972L20.6181 26.4416C22.0867 24.8894 23.0922 22.2546 22.8444 20.5448Z" fill="#CF4037"/>
</svg>
