<svg width="36" height="46" viewBox="0 0 36 46" fill="none" xmlns="http://www.w3.org/2000/svg">
<path fill-rule="evenodd" clip-rule="evenodd" d="M17.8841 8.0842C9.27562 8.0842 2.23065 15.2875 2.23065 24.2577C2.23065 33.2272 9.27625 40.4299 17.8841 40.4299C26.4912 40.4299 33.5362 33.2273 33.5362 24.2577C33.5362 15.2875 26.4905 8.0842 17.8841 8.0842ZM0.67688 24.2577C0.67688 14.5245 8.34162 6.5647 17.8841 6.5647C27.4245 6.5647 35.0899 14.5245 35.0899 24.2577C35.0899 33.9903 27.4252 41.9494 17.8841 41.9494C8.34241 41.9494 0.67688 33.9904 0.67688 24.2577Z" fill="#CF4037"/>
<path fill-rule="evenodd" clip-rule="evenodd" d="M22.8444 20.5451C22.0874 15.2977 17.664 12.7066 14.9009 11.1544C12.3366 9.7148 10.0407 9.06061 9.98531 9.22936C12.9018 11.5746 14.7745 15.2282 14.7745 19.3332C14.7745 26.0647 9.73534 31.5837 3.3335 32.099L3.73828 32.724C11.9339 31.4476 33.8664 27.3759 33.8664 27.3759L33.9246 26.8974L20.6181 26.4418C22.0867 24.8897 23.0922 22.2549 22.8444 20.5451Z" fill="#CF4037"/>
</svg>
