<svg width="194" height="133" viewBox="0 0 194 133" fill="none" xmlns="http://www.w3.org/2000/svg">
<g clip-path="url(#clip0_357_1866)">
<path d="M122.155 37.09H98.1989V31.8831C98.1989 31.5528 98.0684 31.236 97.8359 31.0024C97.6035 30.7688 97.2883 30.6376 96.9596 30.6376H89.925V25.0912C89.925 24.8832 89.8428 24.6838 89.6965 24.5368C89.5502 24.3897 89.3518 24.3071 89.1448 24.3071H80.0833C79.8764 24.3071 79.6779 24.3897 79.5316 24.5368C79.3853 24.6838 79.3031 24.8832 79.3031 25.0912V30.6395H71.0329C70.7042 30.6395 70.389 30.7707 70.1566 31.0043C69.9242 31.2379 69.7936 31.5546 69.7936 31.885V37.0919H46.9503C46.8838 37.0924 46.8202 37.1193 46.7733 37.1667C46.7265 37.2142 46.7002 37.2783 46.7002 37.3451V106.467C46.7002 106.533 46.7265 106.597 46.7733 106.645C46.8202 106.692 46.8838 106.719 46.9503 106.72H62.1319C62.1987 106.72 62.2628 106.693 62.3101 106.646C62.3573 106.598 62.3839 106.534 62.3839 106.467V97.1668C62.3844 97.0998 62.4111 97.0357 62.4582 96.9883C62.5054 96.9409 62.5692 96.9141 62.6358 96.9136H69.0489C69.1156 96.9141 69.1794 96.9409 69.2265 96.9883C69.2737 97.0357 69.3004 97.0998 69.3009 97.1668V106.467C69.3009 106.533 69.3272 106.597 69.374 106.645C69.4209 106.692 69.4845 106.719 69.551 106.72H99.5502C99.6169 106.719 99.6807 106.692 99.7279 106.645C99.775 106.598 99.8017 106.534 99.8022 106.467V97.1668C99.8022 97.1 99.8285 97.0359 99.8753 96.9884C99.9222 96.941 99.9858 96.9141 100.052 96.9136H106.465C106.532 96.9136 106.596 96.9403 106.644 96.9878C106.691 97.0352 106.717 97.0997 106.717 97.1668V106.467C106.718 106.534 106.745 106.598 106.792 106.645C106.839 106.692 106.903 106.719 106.969 106.72H122.151C122.218 106.719 122.281 106.692 122.329 106.645C122.376 106.598 122.402 106.534 122.403 106.467V37.3432C122.402 37.2769 122.376 37.2133 122.33 37.166C122.284 37.1187 122.221 37.0915 122.155 37.09ZM59.6663 93.6836C59.6663 93.7503 59.64 93.8142 59.5931 93.8614C59.5462 93.9085 59.4826 93.935 59.4162 93.935H50.0393C50.0063 93.9352 49.9735 93.9289 49.943 93.9164C49.9124 93.9039 49.8846 93.8854 49.8612 93.862C49.8378 93.8387 49.8192 93.8109 49.8065 93.7803C49.7938 93.7496 49.7873 93.7168 49.7873 93.6836V90.4743C49.7873 90.4411 49.7938 90.4081 49.8065 90.3774C49.8191 90.3467 49.8377 90.3188 49.8611 90.2953C49.8845 90.2717 49.9123 90.2531 49.9428 90.2404C49.9734 90.2276 50.0062 90.2211 50.0393 90.2211H59.4218C59.4883 90.2216 59.5519 90.2485 59.5988 90.2959C59.6456 90.3434 59.6719 90.4075 59.6719 90.4743L59.6663 93.6836ZM59.6663 85.3668C59.6666 85.4 59.6603 85.4328 59.6478 85.4636C59.6354 85.4943 59.617 85.5222 59.5937 85.5457C59.5705 85.5693 59.5428 85.5879 59.5124 85.6007C59.4819 85.6134 59.4492 85.62 59.4162 85.62H50.0393C50.0061 85.6203 49.9732 85.6139 49.9425 85.6012C49.9118 85.5886 49.884 85.57 49.8605 85.5464C49.8371 85.5228 49.8185 85.4948 49.806 85.464C49.7934 85.4332 49.787 85.4001 49.7873 85.3668V82.15C49.787 82.1166 49.7934 82.0836 49.806 82.0528C49.8185 82.0219 49.8371 81.9939 49.8605 81.9703C49.884 81.9468 49.9118 81.9281 49.9425 81.9155C49.9732 81.9029 50.0061 81.8965 50.0393 81.8967H59.4218C59.4548 81.8967 59.4875 81.9033 59.518 81.916C59.5484 81.9288 59.5761 81.9475 59.5993 81.971C59.6226 81.9946 59.641 82.0225 59.6534 82.0532C59.6659 82.0839 59.6722 82.1168 59.6719 82.15L59.6663 85.3668ZM59.6663 77.0518C59.6663 77.1186 59.64 77.1828 59.5932 77.2302C59.5463 77.2776 59.4827 77.3045 59.4162 77.305H50.0393C50.0062 77.305 49.9734 77.2985 49.9428 77.2857C49.9123 77.273 49.8845 77.2544 49.8611 77.2309C49.8377 77.2073 49.8191 77.1794 49.8065 77.1487C49.7938 77.118 49.7873 77.0851 49.7873 77.0518V73.8331C49.7873 73.7998 49.7938 73.7669 49.8065 73.7362C49.8191 73.7055 49.8377 73.6776 49.8611 73.654C49.8845 73.6305 49.9123 73.6119 49.9428 73.5992C49.9734 73.5864 50.0062 73.5799 50.0393 73.5799H59.4218C59.4883 73.5804 59.5519 73.6073 59.5988 73.6547C59.6456 73.7021 59.6719 73.7663 59.6719 73.8331L59.6663 77.0518ZM59.6663 68.735C59.6666 68.7681 59.6603 68.801 59.6478 68.8317C59.6354 68.8624 59.617 68.8904 59.5937 68.9139C59.5705 68.9374 59.5428 68.9561 59.5124 68.9689C59.4819 68.9816 59.4492 68.9882 59.4162 68.9882H50.0393C50.0061 68.9884 49.9732 68.982 49.9425 68.9694C49.9118 68.9568 49.884 68.9381 49.8605 68.9146C49.8371 68.891 49.8185 68.863 49.806 68.8322C49.7934 68.8013 49.787 68.7683 49.7873 68.735V65.5275C49.787 65.4942 49.7934 65.4611 49.806 65.4303C49.8185 65.3995 49.8371 65.3715 49.8605 65.3479C49.884 65.3243 49.9118 65.3057 49.9425 65.2931C49.9732 65.2804 50.0061 65.274 50.0393 65.2743H59.4218C59.4548 65.2743 59.4875 65.2809 59.518 65.2936C59.5484 65.3063 59.5761 65.325 59.5993 65.3486C59.6226 65.3721 59.641 65.4 59.6534 65.4307C59.6659 65.4615 59.6722 65.4943 59.6719 65.5275L59.6663 68.735ZM59.6663 60.42C59.6663 60.4868 59.64 60.5509 59.5932 60.5984C59.5463 60.6458 59.4827 60.6727 59.4162 60.6732H50.0393C50.0062 60.6732 49.9734 60.6666 49.9428 60.6539C49.9123 60.6412 49.8845 60.6225 49.8611 60.599C49.8377 60.5755 49.8191 60.5476 49.8065 60.5169C49.7938 60.4862 49.7873 60.4532 49.7873 60.42V57.2013C49.7873 57.1681 49.7938 57.1353 49.8065 57.1047C49.8192 57.074 49.8378 57.0462 49.8612 57.0229C49.8846 56.9995 49.9124 56.981 49.943 56.9685C49.9735 56.956 50.0063 56.9497 50.0393 56.9499H59.4218C59.4882 56.9499 59.5518 56.9764 59.5987 57.0235C59.6456 57.0707 59.6719 57.1346 59.6719 57.2013L59.6663 60.42ZM59.6663 52.105C59.6663 52.1717 59.64 52.2356 59.5931 52.2827C59.5462 52.3299 59.4826 52.3563 59.4162 52.3563H50.0393C50.0063 52.3566 49.9735 52.3503 49.943 52.3377C49.9124 52.3252 49.8846 52.3068 49.8612 52.2834C49.8378 52.26 49.8192 52.2322 49.8065 52.2016C49.7938 52.171 49.7873 52.1382 49.7873 52.105V48.8863C49.7873 48.853 49.7938 48.8201 49.8065 48.7894C49.8191 48.7587 49.8377 48.7308 49.8611 48.7072C49.8845 48.6837 49.9123 48.6651 49.9428 48.6524C49.9734 48.6396 50.0062 48.6331 50.0393 48.6331H59.4218C59.4883 48.6336 59.5519 48.6605 59.5988 48.7079C59.6456 48.7553 59.6719 48.8195 59.6719 48.8863L59.6663 52.105ZM59.6663 43.7881C59.6666 43.8213 59.6603 43.8542 59.6478 43.8849C59.6354 43.9156 59.617 43.9435 59.5937 43.9671C59.5705 43.9906 59.5428 44.0093 59.5124 44.0221C59.4819 44.0348 59.4492 44.0414 59.4162 44.0414H50.0393C50.0061 44.0416 49.9732 44.0352 49.9425 44.0226C49.9118 44.01 49.884 43.9913 49.8605 43.9678C49.8371 43.9442 49.8185 43.9162 49.806 43.8853C49.7934 43.8545 49.787 43.8215 49.7873 43.7881V40.5807C49.787 40.5474 49.7934 40.5143 49.806 40.4835C49.8185 40.4527 49.8371 40.4247 49.8605 40.4011C49.884 40.3775 49.9118 40.3589 49.9425 40.3462C49.9732 40.3336 50.0061 40.3272 50.0393 40.3275H59.4218C59.4548 40.3275 59.4875 40.334 59.518 40.3468C59.5484 40.3595 59.5761 40.3782 59.5993 40.4018C59.6226 40.4253 59.641 40.4532 59.6534 40.4839C59.6659 40.5146 59.6722 40.5475 59.6719 40.5807L59.6663 43.7881ZM81.8975 93.6818C81.8975 93.7149 81.8909 93.7478 81.8783 93.7784C81.8656 93.809 81.847 93.8368 81.8236 93.8602C81.8001 93.8835 81.7723 93.902 81.7418 93.9145C81.7112 93.927 81.6785 93.9334 81.6455 93.9331H72.2685C72.202 93.9331 72.1382 93.9067 72.091 93.8596C72.0438 93.8125 72.017 93.7486 72.0166 93.6818V90.4743C72.017 90.4073 72.0437 90.3432 72.0909 90.2958C72.138 90.2484 72.2018 90.2216 72.2685 90.2211H81.6455C81.6786 90.2211 81.7113 90.2276 81.7419 90.2404C81.7725 90.2531 81.8003 90.2717 81.8237 90.2953C81.8471 90.3188 81.8656 90.3467 81.8783 90.3774C81.891 90.4081 81.8975 90.4411 81.8975 90.4743V93.6818ZM81.8975 85.3649C81.8977 85.3982 81.8914 85.4313 81.8788 85.4621C81.8662 85.4929 81.8477 85.521 81.8242 85.5445C81.8008 85.5681 81.7729 85.5867 81.7422 85.5994C81.7115 85.612 81.6787 85.6184 81.6455 85.6181H72.2685C72.2017 85.6181 72.1376 85.5915 72.0903 85.544C72.0431 85.4965 72.0166 85.4321 72.0166 85.3649V82.15C72.0166 82.0828 72.0431 82.0184 72.0903 81.9709C72.1376 81.9234 72.2017 81.8967 72.2685 81.8967H81.6455C81.6787 81.8965 81.7115 81.9029 81.7422 81.9155C81.7729 81.9281 81.8008 81.9468 81.8242 81.9703C81.8477 81.9939 81.8662 82.0219 81.8788 82.0528C81.8914 82.0836 81.8977 82.1166 81.8975 82.15V85.3649ZM81.8975 77.0499C81.8975 77.0832 81.891 77.1161 81.8783 77.1468C81.8656 77.1776 81.8471 77.2055 81.8237 77.229C81.8003 77.2525 81.7725 77.2712 81.7419 77.2839C81.7113 77.2966 81.6786 77.3031 81.6455 77.3031H72.2685C72.2018 77.3027 72.138 77.2758 72.0909 77.2284C72.0437 77.1811 72.017 77.1169 72.0166 77.0499V73.8331C72.017 73.7661 72.0437 73.702 72.0909 73.6546C72.138 73.6072 72.2018 73.5804 72.2685 73.5799H81.6455C81.6786 73.5799 81.7113 73.5864 81.7419 73.5992C81.7725 73.6119 81.8003 73.6305 81.8237 73.654C81.8471 73.6776 81.8656 73.7055 81.8783 73.7362C81.891 73.7669 81.8975 73.7998 81.8975 73.8331V77.0499ZM81.8975 68.7331C81.8977 68.7664 81.8914 68.7994 81.8788 68.8303C81.8662 68.8611 81.8477 68.8891 81.8242 68.9127C81.8008 68.9362 81.7729 68.9549 81.7422 68.9675C81.7115 68.9802 81.6787 68.9865 81.6455 68.9863H72.2685C72.2017 68.9863 72.1376 68.9596 72.0903 68.9121C72.0431 68.8646 72.0166 68.8002 72.0166 68.7331V65.5275C72.0166 65.4603 72.0431 65.3959 72.0903 65.3485C72.1376 65.301 72.2017 65.2743 72.2685 65.2743H81.6455C81.6787 65.274 81.7115 65.2804 81.7422 65.2931C81.7729 65.3057 81.8008 65.3243 81.8242 65.3479C81.8477 65.3715 81.8662 65.3995 81.8788 65.4303C81.8914 65.4611 81.8977 65.4942 81.8975 65.5275V68.7331ZM81.8975 60.4181C81.8975 60.4514 81.891 60.4843 81.8783 60.515C81.8656 60.5457 81.8471 60.5736 81.8237 60.5972C81.8003 60.6207 81.7725 60.6393 81.7419 60.652C81.7113 60.6648 81.6786 60.6713 81.6455 60.6713H72.2685C72.2018 60.6708 72.138 60.644 72.0909 60.5966C72.0437 60.5492 72.017 60.4851 72.0166 60.4181V57.2013C72.017 57.1344 72.0438 57.0705 72.091 57.0234C72.1382 56.9763 72.202 56.9499 72.2685 56.9499H81.6455C81.6785 56.9497 81.7112 56.956 81.7418 56.9685C81.7723 56.981 81.8001 56.9995 81.8236 57.0229C81.847 57.0462 81.8656 57.074 81.8783 57.1047C81.8909 57.1353 81.8975 57.1681 81.8975 57.2013V60.4181ZM81.8975 52.1031C81.8975 52.1363 81.8909 52.1691 81.8783 52.1997C81.8656 52.2304 81.847 52.2582 81.8236 52.2815C81.8001 52.3049 81.7723 52.3234 81.7418 52.3359C81.7112 52.3484 81.6785 52.3547 81.6455 52.3545H72.2685C72.202 52.3545 72.1382 52.328 72.091 52.281C72.0438 52.2339 72.017 52.17 72.0166 52.1031V48.8863C72.017 48.8193 72.0437 48.7552 72.0909 48.7078C72.138 48.6604 72.2018 48.6336 72.2685 48.6331H81.6455C81.6786 48.6331 81.7113 48.6396 81.7419 48.6524C81.7725 48.6651 81.8003 48.6837 81.8237 48.7072C81.8471 48.7308 81.8656 48.7587 81.8783 48.7894C81.891 48.8201 81.8975 48.853 81.8975 48.8863V52.1031ZM81.8975 43.7863C81.8977 43.8196 81.8914 43.8526 81.8788 43.8835C81.8662 43.9143 81.8477 43.9423 81.8242 43.9659C81.8008 43.9894 81.7729 44.0081 81.7422 44.0207C81.7115 44.0334 81.6787 44.0397 81.6455 44.0395H72.2685C72.2017 44.0395 72.1376 44.0128 72.0903 43.9653C72.0431 43.9178 72.0166 43.8534 72.0166 43.7863V40.5807C72.0166 40.5135 72.0431 40.4491 72.0903 40.4016C72.1376 40.3542 72.2017 40.3275 72.2685 40.3275H81.6455C81.6787 40.3272 81.7115 40.3336 81.7422 40.3462C81.7729 40.3589 81.8008 40.3775 81.8242 40.4011C81.8477 40.4247 81.8662 40.4527 81.8788 40.4835C81.8914 40.5143 81.8977 40.5474 81.8975 40.5807V43.7863ZM97.0884 93.6799C97.0884 93.7131 97.0819 93.7459 97.0692 93.7765C97.0565 93.8071 97.0379 93.8349 97.0145 93.8583C96.9911 93.8816 96.9633 93.9001 96.9327 93.9126C96.9022 93.9252 96.8694 93.9315 96.8364 93.9312H87.4594C87.3929 93.9312 87.3291 93.9048 87.2819 93.8577C87.2347 93.8106 87.208 93.7467 87.2075 93.6799V90.4743C87.208 90.4073 87.2347 90.3432 87.2818 90.2958C87.329 90.2484 87.3928 90.2216 87.4594 90.2211H96.8364C96.9033 90.2211 96.9673 90.2478 97.0146 90.2953C97.0619 90.3428 97.0884 90.4072 97.0884 90.4743V93.6799ZM97.0884 85.363C97.0886 85.3964 97.0823 85.4294 97.0697 85.4602C97.0572 85.4911 97.0386 85.5191 97.0151 85.5426C96.9917 85.5662 96.9638 85.5848 96.9331 85.5975C96.9025 85.6101 96.8696 85.6165 96.8364 85.6162H87.4594C87.3926 85.6162 87.3285 85.5896 87.2813 85.5421C87.234 85.4946 87.2075 85.4302 87.2075 85.363V82.15C87.2075 82.0828 87.234 82.0184 87.2813 81.9709C87.3285 81.9234 87.3926 81.8967 87.4594 81.8967H96.8364C96.8696 81.8965 96.9025 81.9029 96.9331 81.9155C96.9638 81.9281 96.9917 81.9468 97.0151 81.9703C97.0386 81.9939 97.0572 82.0219 97.0697 82.0528C97.0823 82.0836 97.0886 82.1166 97.0884 82.15V85.363ZM97.0884 77.0481C97.0884 77.1152 97.0619 77.1796 97.0146 77.2271C96.9673 77.2746 96.9033 77.3013 96.8364 77.3013H87.4594C87.3928 77.3008 87.329 77.2739 87.2818 77.2266C87.2347 77.1792 87.208 77.1151 87.2075 77.0481V73.8331C87.208 73.7661 87.2347 73.702 87.2818 73.6546C87.329 73.6072 87.3928 73.5804 87.4594 73.5799H96.8364C96.9033 73.5799 96.9673 73.6066 97.0146 73.654C97.0619 73.7015 97.0884 73.7659 97.0884 73.8331V77.0481ZM97.0884 68.7312C97.0886 68.7645 97.0823 68.7976 97.0697 68.8284C97.0572 68.8592 97.0386 68.8872 97.0151 68.9108C96.9917 68.9344 96.9638 68.953 96.9331 68.9657C96.9025 68.9783 96.8696 68.9847 96.8364 68.9844H87.4594C87.3926 68.9844 87.3285 68.9577 87.2813 68.9103C87.234 68.8628 87.2075 68.7984 87.2075 68.7312V65.5275C87.2075 65.4603 87.234 65.3959 87.2813 65.3485C87.3285 65.301 87.3926 65.2743 87.4594 65.2743H96.8364C96.8696 65.274 96.9025 65.2804 96.9331 65.2931C96.9638 65.3057 96.9917 65.3243 97.0151 65.3479C97.0386 65.3715 97.0572 65.3995 97.0697 65.4303C97.0823 65.4611 97.0886 65.4942 97.0884 65.5275V68.7312ZM97.0884 60.4162C97.0884 60.4834 97.0619 60.5478 97.0146 60.5953C96.9673 60.6428 96.9033 60.6694 96.8364 60.6694H87.4594C87.3928 60.669 87.329 60.6421 87.2818 60.5947C87.2347 60.5474 87.208 60.4832 87.2075 60.4162V57.2013C87.208 57.1344 87.2347 57.0705 87.2819 57.0234C87.3291 56.9763 87.3929 56.9499 87.4594 56.9499H96.8364C96.8694 56.9497 96.9022 56.956 96.9327 56.9685C96.9633 56.981 96.9911 56.9995 97.0145 57.0229C97.0379 57.0462 97.0565 57.074 97.0692 57.1047C97.0819 57.1353 97.0884 57.1681 97.0884 57.2013V60.4162ZM97.0884 52.1012C97.0884 52.1344 97.0819 52.1673 97.0692 52.1979C97.0565 52.2285 97.0379 52.2563 97.0145 52.2796C96.9911 52.303 96.9633 52.3215 96.9327 52.334C96.9022 52.3465 96.8694 52.3528 96.8364 52.3526H87.4594C87.3929 52.3526 87.3291 52.3262 87.2819 52.2791C87.2347 52.232 87.208 52.1681 87.2075 52.1012V48.8863C87.208 48.8193 87.2347 48.7552 87.2818 48.7078C87.329 48.6604 87.3928 48.6336 87.4594 48.6331H96.8364C96.9033 48.6331 96.9673 48.6598 97.0146 48.7072C97.0619 48.7547 97.0884 48.8191 97.0884 48.8863V52.1012ZM97.0884 43.7844C97.0886 43.8177 97.0823 43.8508 97.0697 43.8816C97.0572 43.9124 97.0386 43.9404 97.0151 43.964C96.9917 43.9876 96.9638 44.0062 96.9331 44.0188C96.9025 44.0315 96.8696 44.0379 96.8364 44.0376H87.4594C87.3926 44.0376 87.3285 44.0109 87.2813 43.9634C87.234 43.916 87.2075 43.8515 87.2075 43.7844V40.5807C87.2075 40.5135 87.234 40.4491 87.2813 40.4016C87.3285 40.3542 87.3926 40.3275 87.4594 40.3275H96.8364C96.8696 40.3272 96.9025 40.3336 96.9331 40.3462C96.9638 40.3589 96.9917 40.3775 97.0151 40.4011C97.0386 40.4247 97.0572 40.4527 97.0697 40.4835C97.0823 40.5143 97.0886 40.5474 97.0884 40.5807V43.7844ZM119.32 93.678C119.319 93.7448 119.292 93.8088 119.245 93.8559C119.198 93.9029 119.134 93.9294 119.068 93.9294H109.691C109.658 93.9296 109.625 93.9233 109.594 93.9108C109.564 93.8982 109.536 93.8798 109.513 93.8564C109.489 93.833 109.471 93.8052 109.458 93.7746C109.445 93.744 109.439 93.7112 109.439 93.678V90.4743C109.439 90.4072 109.465 90.3428 109.512 90.2953C109.56 90.2478 109.624 90.2211 109.691 90.2211H119.068C119.134 90.2216 119.198 90.2484 119.245 90.2958C119.292 90.3432 119.319 90.4073 119.32 90.4743V93.678ZM119.32 85.3612C119.32 85.4283 119.293 85.4927 119.246 85.5402C119.198 85.5877 119.134 85.6144 119.068 85.6144H109.691C109.657 85.6146 109.625 85.6082 109.594 85.5956C109.563 85.583 109.535 85.5643 109.512 85.5408C109.488 85.5172 109.47 85.4892 109.457 85.4584C109.445 85.4275 109.438 85.3945 109.439 85.3612V82.15C109.438 82.1166 109.445 82.0836 109.457 82.0528C109.47 82.0219 109.488 81.9939 109.512 81.9703C109.535 81.9468 109.563 81.9281 109.594 81.9155C109.625 81.9029 109.657 81.8965 109.691 81.8967H119.068C119.134 81.8967 119.198 81.9234 119.246 81.9709C119.293 82.0184 119.32 82.0828 119.32 82.15V85.3612ZM119.32 77.0462C119.319 77.1132 119.292 77.1773 119.245 77.2247C119.198 77.2721 119.134 77.2989 119.068 77.2994H109.691C109.624 77.2994 109.56 77.2727 109.512 77.2252C109.465 77.1777 109.439 77.1133 109.439 77.0462V73.8331C109.439 73.7659 109.465 73.7015 109.512 73.654C109.56 73.6066 109.624 73.5799 109.691 73.5799H119.068C119.134 73.5804 119.198 73.6072 119.245 73.6546C119.292 73.702 119.319 73.7661 119.32 73.8331V77.0462ZM119.32 68.7293C119.32 68.7965 119.293 68.8609 119.246 68.9084C119.198 68.9559 119.134 68.9825 119.068 68.9825H109.691C109.625 68.9821 109.563 68.9559 109.516 68.9096C109.47 68.8633 109.443 68.8006 109.442 68.735V65.5275C109.442 65.4942 109.448 65.4611 109.461 65.4303C109.474 65.3995 109.492 65.3715 109.516 65.3479C109.539 65.3243 109.567 65.3057 109.598 65.2931C109.628 65.2804 109.661 65.274 109.694 65.2743H119.071C119.138 65.2743 119.202 65.301 119.249 65.3485C119.297 65.3959 119.323 65.4603 119.323 65.5275L119.32 68.7293ZM119.32 60.4143C119.319 60.4814 119.292 60.5455 119.245 60.5929C119.198 60.6402 119.134 60.6671 119.068 60.6676H109.691C109.624 60.6676 109.56 60.6409 109.512 60.5934C109.465 60.5459 109.439 60.4815 109.439 60.4143V57.2013C109.439 57.1681 109.445 57.1353 109.458 57.1047C109.471 57.074 109.489 57.0462 109.513 57.0229C109.536 56.9995 109.564 56.981 109.594 56.9685C109.625 56.956 109.658 56.9497 109.691 56.9499H119.068C119.134 56.9499 119.198 56.9763 119.245 57.0234C119.292 57.0705 119.319 57.1344 119.32 57.2013V60.4143ZM119.32 52.0994C119.319 52.1662 119.292 52.2301 119.245 52.2772C119.198 52.3243 119.134 52.3507 119.068 52.3507H109.691C109.658 52.351 109.625 52.3446 109.594 52.3321C109.564 52.3196 109.536 52.3011 109.513 52.2778C109.489 52.2544 109.471 52.2266 109.458 52.196C109.445 52.1654 109.439 52.1325 109.439 52.0994V48.8863C109.439 48.8191 109.465 48.7547 109.512 48.7072C109.56 48.6598 109.624 48.6331 109.691 48.6331H119.068C119.134 48.6336 119.198 48.6604 119.245 48.7078C119.292 48.7552 119.319 48.8193 119.32 48.8863V52.0994ZM119.32 43.7825C119.32 43.8158 119.313 43.8487 119.3 43.8794C119.288 43.9101 119.269 43.9381 119.246 43.9616C119.222 43.9851 119.195 44.0037 119.164 44.0165C119.133 44.0292 119.101 44.0357 119.068 44.0357H109.691C109.625 44.0353 109.563 44.0091 109.516 43.9628C109.47 43.9165 109.443 43.8538 109.442 43.7881V40.5807C109.442 40.5474 109.448 40.5143 109.461 40.4835C109.474 40.4527 109.492 40.4247 109.516 40.4011C109.539 40.3775 109.567 40.3589 109.598 40.3462C109.628 40.3336 109.661 40.3272 109.694 40.3275H119.071C119.138 40.3275 119.202 40.3542 119.249 40.4016C119.297 40.4491 119.323 40.5135 119.323 40.5807L119.32 43.7825Z" fill="#F2F2F2"/>
<path d="M49.8618 8.29813L46.9651 10.1438L48.7233 6.92886C48.2254 6.52967 47.6094 6.30857 46.9725 6.30051H46.9259C46.7246 6.30353 46.5235 6.28847 46.3249 6.25549L45.3431 6.8801L45.7631 6.11106C45.0668 5.8671 44.4656 5.40737 44.046 4.79807L42.2896 5.92349L43.3983 3.89586C42.3718 2.65602 40.9869 1.89636 39.462 1.89636C37.6348 1.89636 36.0072 2.98802 34.9564 4.68928C34.6457 5.20011 34.2054 5.6187 33.6806 5.90216C33.1558 6.18562 32.5655 6.32375 31.9701 6.30238H31.8731C29.8555 6.30238 28.2205 8.60199 28.2205 11.4362C28.2205 14.2704 29.8629 16.5718 31.8805 16.5718C32.3238 16.5695 32.7598 16.4595 33.1516 16.2511C33.8383 15.9153 34.5894 15.7337 35.3529 15.7188C36.1164 15.7039 36.874 15.8561 37.5732 16.1648C38.1645 16.4306 38.8049 16.568 39.4527 16.568C40.1004 16.568 40.7409 16.4306 41.3322 16.1648C42.0257 15.8625 42.7759 15.7138 43.5318 15.7287C44.2876 15.7436 45.0314 15.9217 45.7127 16.2511C46.1011 16.4577 46.5331 16.5677 46.9725 16.5718C48.9902 16.5718 50.6252 14.2722 50.6252 11.4362C50.6371 10.3423 50.3746 9.26305 49.8618 8.29813Z" fill="#F2F2F2"/>
<path opacity="0.03" d="M44.4026 15.8104C43.3487 15.6087 42.2589 15.7276 41.2726 16.1517C40.6814 16.4169 40.0413 16.554 39.394 16.554C38.7466 16.554 38.1065 16.4169 37.5154 16.1517C36.8161 15.8439 36.0586 15.6922 35.2952 15.7071C34.5318 15.722 33.7808 15.9031 33.0938 16.238C32.7018 16.4475 32.2649 16.5576 31.8209 16.5588C30.0291 16.5588 28.5379 14.745 28.228 12.3516C28.5862 12.0888 28.8904 11.7588 29.1239 11.38C30.1747 9.6787 31.8023 8.58704 33.6295 8.58704C35.4567 8.58704 37.0637 9.66557 38.1089 11.3499C38.4219 11.8587 38.8606 12.2773 39.3822 12.5653C39.9039 12.8532 40.4908 13.0006 41.0859 12.9931H41.1326C42.566 12.9837 43.8016 14.1335 44.4026 15.8104Z" fill="black"/>
<path d="M143.508 3.19432L142.059 4.11528L142.937 2.51156C142.688 2.31263 142.381 2.20243 142.063 2.19832H142.041C141.94 2.2003 141.839 2.19277 141.74 2.17581L141.251 2.48905L141.46 2.11391C141.114 1.99179 140.814 1.76348 140.603 1.46117L139.728 2.02388L140.288 1.01288C140.057 0.707741 139.761 0.458416 139.421 0.283161C139.082 0.107906 138.708 0.0111582 138.326 0C137.416 0 136.604 0.545829 136.087 1.39365C135.931 1.64871 135.711 1.85764 135.448 1.99903C135.186 2.14042 134.891 2.2092 134.594 2.19832H134.545C133.539 2.19832 132.723 3.34437 132.723 4.75865C132.723 6.17293 133.539 7.31898 134.545 7.31898C134.766 7.31826 134.984 7.26355 135.18 7.15955C135.522 6.99235 135.896 6.90189 136.277 6.89444C136.658 6.88699 137.035 6.96273 137.384 7.1164C137.679 7.24877 137.999 7.31718 138.322 7.31718C138.645 7.31718 138.965 7.24877 139.26 7.1164C139.606 6.9659 139.98 6.89187 140.357 6.89931C140.734 6.90675 141.105 6.9955 141.445 7.15955C141.639 7.26128 141.854 7.31468 142.072 7.31523C143.078 7.31523 143.894 6.16918 143.894 4.7549C143.897 4.21044 143.764 3.67393 143.508 3.19432V3.19432Z" fill="#F2F2F2"/>
<path opacity="0.03" d="M140.785 6.9401C140.258 6.8407 139.715 6.90009 139.222 7.11079C138.929 7.24211 138.611 7.30985 138.289 7.30961C137.967 7.30795 137.65 7.23896 137.356 7.10704C137.007 6.95332 136.629 6.87758 136.248 6.88502C135.867 6.89247 135.492 6.98294 135.15 7.15018C134.954 7.25439 134.736 7.30912 134.515 7.30961C133.621 7.30961 132.878 6.40553 132.723 5.21071C132.902 5.0797 133.054 4.91541 133.171 4.72677C133.694 3.87896 134.506 3.33313 135.411 3.33313C136.316 3.33313 137.124 3.87146 137.651 4.71177C137.808 4.96672 138.028 5.17633 138.29 5.32003C138.551 5.46373 138.846 5.53658 139.144 5.53145H139.168C139.868 5.53145 140.484 6.10541 140.785 6.9401Z" fill="black"/>
<path d="M121.548 13.3846L119.849 14.4668L120.88 12.5911C120.589 12.3547 120.227 12.2226 119.853 12.216H119.825C119.707 12.2177 119.589 12.2089 119.472 12.1897L118.898 12.5649L119.144 12.1128C118.736 11.97 118.383 11.7016 118.136 11.3457L117.106 12.0022L117.757 10.813C117.483 10.4573 117.134 10.1674 116.735 9.96425C116.335 9.76115 115.896 9.64997 115.448 9.63879C114.377 9.63879 113.421 10.2803 112.806 11.2782C112.623 11.5755 112.365 11.8189 112.058 11.9836C111.751 12.1483 111.406 12.2285 111.059 12.216H111.001C109.817 12.216 108.86 13.5646 108.86 15.2171C108.86 16.8696 109.817 18.2276 111.001 18.2276C111.261 18.2272 111.517 18.1628 111.747 18.0401C112.15 17.8434 112.59 17.7371 113.038 17.7283C113.486 17.7196 113.93 17.8087 114.34 17.9894C114.687 18.1446 115.062 18.2248 115.442 18.2248C115.822 18.2248 116.197 18.1446 116.544 17.9894C116.951 17.8123 117.391 17.7251 117.835 17.7339C118.278 17.7426 118.714 17.847 119.114 18.0401C119.344 18.1619 119.6 18.2263 119.861 18.2276C121.044 18.2276 122.003 16.8809 122.003 15.2171C122.006 14.5776 121.85 13.9476 121.548 13.3846V13.3846Z" fill="#F2F2F2"/>
<path opacity="0.03" d="M112.485 24.4686C111.866 24.3509 111.227 24.4208 110.648 24.6693C110.301 24.8244 109.926 24.9046 109.546 24.9046C109.166 24.9046 108.791 24.8244 108.444 24.6693C108.034 24.4885 107.59 24.3994 107.142 24.4082C106.694 24.4169 106.254 24.5233 105.851 24.7199C105.621 24.8424 105.365 24.9068 105.105 24.9075C104.054 24.9075 103.179 23.8439 102.998 22.4409C103.207 22.289 103.385 22.0979 103.522 21.8782C104.138 20.8803 105.094 20.2407 106.165 20.2407C107.236 20.2407 108.181 20.8728 108.797 21.8595C108.98 22.158 109.237 22.4037 109.543 22.5727C109.849 22.7417 110.193 22.8281 110.542 22.8236H110.562C111.406 22.8104 112.132 23.4857 112.485 24.4686Z" fill="black"/>
<path d="M176.798 106.765C176.798 107.087 176.798 107.41 176.778 107.729C176.73 108.97 176.581 110.205 176.333 111.422C175.107 117.445 171.567 122.127 167.119 123.509C166.234 123.786 165.313 123.927 164.386 123.927C157.531 123.927 151.975 116.237 151.975 106.765C151.975 97.2925 157.531 89.6022 164.386 89.6022C170.816 89.6022 176.106 96.3659 176.735 105.03C176.778 105.6 176.798 106.18 176.798 106.765Z" fill="#333333"/>
<path opacity="0.1" d="M176.778 107.731C176.73 108.972 176.581 110.207 176.333 111.424C175.107 117.447 171.567 122.129 167.119 123.511C163.675 121.919 161.12 115.95 161.12 108.83C161.12 100.491 164.629 93.7306 168.959 93.7306C172.593 93.7306 175.65 98.4986 176.537 104.968C176.66 105.855 176.74 106.782 176.778 107.731Z" fill="black"/>
<path d="M114.459 68.7819C114.459 68.7819 148.055 61.8418 165.786 68.2192C165.786 68.2192 168.399 69.5322 165.786 71.783C165.786 71.783 168.257 74.409 163.942 75.3469L146.799 76.4066L114.459 73.096V68.7819Z" fill="#2F2E30"/>
<path d="M153.095 80.0362L150.855 75.5345C150.855 75.5345 151.837 70.9803 143.856 69.6411C143.413 67.6547 141.409 66.156 139.003 66.156C136.655 66.156 134.691 67.5815 134.184 69.4947C133.038 69.5942 131.817 69.7292 130.511 69.9074L128.685 79.7436L128.458 79.2859C128.458 79.2859 129.617 73.9064 119.17 73.1205C119.74 72.4268 120.053 71.5569 120.059 70.6577C120.059 68.2737 117.843 66.3436 115.113 66.3436C112.382 66.3436 110.166 68.2737 110.166 70.6577C110.174 71.6371 110.544 72.5786 111.204 73.2987C110.227 73.3925 109.197 73.5125 108.113 73.6588L106.06 84.7254L115.579 86.0384L130.697 83.7876L129.359 81.096L137.976 82.2852L153.095 80.0362Z" fill="#6C6C6C"/>
<path d="M120.988 70.0724C120.988 70.0724 119.495 61.6543 126.401 61.4667C133.306 61.2791 131.067 73.6588 131.067 73.6588C131.067 73.6588 136.293 74.7842 136.666 76.8474C137.039 78.9107 118.562 79.4734 118.562 79.4734L120.988 70.0724Z" fill="#8F8F8F"/>
<path d="M108.86 114.549C108.86 124.49 101.506 132.556 92.4351 132.556C83.3643 132.556 76.0105 124.49 76.0105 114.549C76.0105 104.608 83.4557 94.948 92.5285 94.948C101.601 94.948 108.86 104.604 108.86 114.549Z" fill="#333333"/>
<path opacity="0.1" d="M92.4352 130.491C99.6508 130.491 105.5 123.689 105.5 115.299C105.5 106.909 99.6508 100.108 92.4352 100.108C85.2195 100.108 79.3701 106.909 79.3701 115.299C79.3701 123.689 85.2195 130.491 92.4352 130.491Z" fill="black"/>
<path d="M20.2042 130.866C29.2753 130.866 36.6288 122.804 36.6288 112.859C36.6288 102.914 29.2753 94.8523 20.2042 94.8523C11.1331 94.8523 3.77954 102.914 3.77954 112.859C3.77954 122.804 11.1331 130.866 20.2042 130.866Z" fill="#303030"/>
<path d="M48.2008 69.9073C48.2008 69.9073 40.5484 70.2825 40.9217 74.409C41.295 78.5356 47.4542 75.5345 47.4542 75.5345L48.2008 69.9073Z" fill="#373737"/>
<path d="M111.869 76.7817L115.019 55.652C115.019 55.652 115.766 53.026 105.687 53.026C105.687 53.026 73.3976 50.9627 65.1853 54.339C65.1853 54.339 55.6665 57.9028 42.4148 76.2847C42.4148 76.2847 110.562 77.9072 111.869 76.7817Z" fill="#FBA403"/>
<path d="M109.333 55.6677C110.285 55.6599 110.976 56.5681 110.716 57.4829L104.94 77.7854L101.312 77.6972L84.1409 77.277L45.8435 76.3392C45.7506 74.7478 59.8278 60.466 63.4091 56.86C63.936 56.3295 64.6487 56.0325 65.3963 56.0264L109.333 55.6677Z" fill="#4F4F4F"/>
<path opacity="0.2" d="M84.1465 77.2771L85.7106 71.1998C85.7106 71.1998 84.2174 62.7798 91.1232 62.5922C98.029 62.4046 95.7893 74.7843 95.7893 74.7843C95.7893 74.7843 100.549 75.8103 101.307 77.6972L84.1465 77.2771Z" fill="#888888"/>
<path d="M176.892 105.452C175.772 94.5728 168.773 92.2282 168.773 92.2282C162.053 91.8531 157.574 117.55 157.574 117.55L105.874 122.239C105.874 122.239 107.647 100.388 95.1416 96.8237C82.6365 93.2599 79.3702 118.863 78.8103 122.427C78.2504 125.991 3.40625 122.052 1.35317 120.551C-0.699914 119.051 0.0466609 104.608 0.606592 103.482C1.16652 102.357 2.65967 97.2926 2.65967 97.2926C2.65967 96.0847 3.23453 94.5578 3.71234 93.4981C4.0483 92.7478 4.33947 92.2282 4.33947 92.2282C5.9614 82.9848 14.3828 80.7471 14.9483 80.5989H14.9782C17.2179 78.348 37.9353 76.8475 37.9353 76.8475L45.7744 75.3469L109.508 76.6055L112.22 76.6599L144.621 75.0937L166.533 74.0339C171.572 74.0339 174.185 86.7887 174.185 86.7887C178.851 98.0429 176.892 105.452 176.892 105.452Z" fill="#FBA403"/>
<path opacity="0.1" d="M71.8197 94.4052C76.7426 92.4143 79.728 88.2895 78.4878 85.1921C77.2475 82.0947 72.2513 81.1976 67.3283 83.1885C62.4054 85.1793 59.42 89.3041 60.6602 92.4016C61.9005 95.499 66.8967 96.396 71.8197 94.4052Z" fill="black"/>
<path d="M71.4469 93.654C76.3698 91.6632 79.3552 87.5384 78.115 84.441C76.8747 81.3436 71.8785 80.4465 66.9555 82.4374C62.0326 84.4282 59.0472 88.553 60.2874 91.6504C61.5277 94.7478 66.5239 95.6449 71.4469 93.654Z" fill="#F2F2F2"/>
<path opacity="0.1" d="M15.3216 80.9816C15.2265 83.0448 14.3063 85.6483 12.6508 88.1561C9.98737 92.1926 6.33475 94.5691 4.08569 93.8732C4.42165 93.123 4.71282 92.6034 4.71282 92.6034C6.33475 83.3599 14.7561 81.1222 15.3216 80.9816Z" fill="black"/>
<path d="M14.7616 80.6063C14.6664 82.6696 13.7462 85.2731 12.0907 87.7809C9.42731 91.8174 5.77469 94.1939 3.52563 93.498C3.86159 92.7477 4.15276 92.2282 4.15276 92.2282C5.77469 82.9847 14.1961 80.747 14.7616 80.6063Z" fill="#F2F2F2"/>
<path d="M40.9216 86.2241H26.1768L25.4302 84.1608H43.348L40.9216 86.2241Z" fill="#373737"/>
<path d="M37.562 101.417H13.2983V108.545H37.562V101.417Z" fill="#373737"/>
<path opacity="0.1" d="M63.6921 115.485C65.5476 115.485 67.0517 113.973 67.0517 112.109C67.0517 110.244 65.5476 108.732 63.6921 108.732C61.8367 108.732 60.3325 110.244 60.3325 112.109C60.3325 113.973 61.8367 115.485 63.6921 115.485Z" fill="black"/>
<path d="M63.3188 114.922C65.1743 114.922 66.6784 113.411 66.6784 111.546C66.6784 109.681 65.1743 108.17 63.3188 108.17C61.4634 108.17 59.9592 109.681 59.9592 111.546C59.9592 113.411 61.4634 114.922 63.3188 114.922Z" fill="#F2F2F2"/>
<path opacity="0.1" d="M2.65977 113.047C3.5875 113.047 4.33957 111.451 4.33957 109.483C4.33957 107.515 3.5875 105.919 2.65977 105.919C1.73205 105.919 0.97998 107.515 0.97998 109.483C0.97998 111.451 1.73205 113.047 2.65977 113.047Z" fill="black"/>
<path d="M2.09971 112.859C3.02744 112.859 3.77951 111.263 3.77951 109.295C3.77951 107.327 3.02744 105.731 2.09971 105.731C1.17199 105.731 0.419922 107.327 0.419922 109.295C0.419922 111.263 1.17199 112.859 2.09971 112.859Z" fill="#F2F2F2"/>
<path d="M150.108 94.2914C148.055 100.669 147.868 110.61 147.868 110.61L147.122 113.236L110.726 117.363C110.726 117.363 110.913 98.9807 111.473 90.3524C111.867 84.2658 110.405 79.1133 109.508 76.6054L112.22 76.6598L144.621 75.0936C150.034 78.9069 151.95 88.5649 150.108 94.2914Z" fill="#D58A00"/>
<path d="M141.81 82.7934C141.683 82.8019 141.558 82.8371 141.445 82.8967C141.332 82.9563 141.233 83.039 141.153 83.1395C141.074 83.24 141.016 83.3561 140.984 83.4803C140.952 83.6045 140.946 83.734 140.966 83.8607C140.984 83.9667 141.027 84.0668 141.092 84.1521C141.157 84.2375 141.242 84.3055 141.34 84.3503C141.942 84.6523 145.955 83.9751 147.476 83.705C147.702 83.6683 147.908 83.5577 148.064 83.3904C148.22 83.2231 148.317 83.0085 148.339 82.7803C148.357 82.5139 148.26 82.287 147.872 82.287L141.81 82.7934Z" fill="#F2F2F2"/>
<path d="M109.42 75.9096C109.42 75.9096 110.353 80.0361 114.833 78.7231L116.326 72.9085L113.339 71.2203L109.42 75.9096Z" fill="#373737"/>
<path d="M114.905 67.5308C116.958 66.3079 120.215 65.2387 123.437 67.8066C124.107 68.3386 124.58 69.0818 124.78 69.9167C124.979 70.7516 124.893 71.6296 124.536 72.4095C123.482 74.7035 120.979 77.1926 115.135 74.2121C114.561 73.9195 114.072 73.4843 113.713 72.9479L113.683 72.9029C113.4 72.4731 113.207 71.9902 113.115 71.4833C113.024 70.9764 113.036 70.4561 113.15 69.9538C113.264 69.4516 113.479 68.9779 113.78 68.5614C114.082 68.145 114.465 67.7944 114.905 67.5308V67.5308Z" fill="#373737"/>
<path d="M92.5285 118.205C94.5901 118.205 96.2614 116.525 96.2614 114.453C96.2614 112.382 94.5901 110.702 92.5285 110.702C90.4669 110.702 88.7957 112.382 88.7957 114.453C88.7957 116.525 90.4669 118.205 92.5285 118.205Z" fill="#F2F2F2"/>
<path d="M169.612 111.452C170.746 111.452 171.665 109.773 171.665 107.701C171.665 105.629 170.746 103.949 169.612 103.949C168.479 103.949 167.559 105.629 167.559 107.701C167.559 109.773 168.479 111.452 169.612 111.452Z" fill="#F2F2F2"/>
<path d="M92.6218 102.918H92.2485C91.0115 102.918 90.0088 103.926 90.0088 105.169V107.232C90.0088 108.475 91.0115 109.483 92.2485 109.483H92.6218C93.8588 109.483 94.8615 108.475 94.8615 107.232V105.169C94.8615 103.926 93.8588 102.918 92.6218 102.918Z" fill="#484848"/>
<path d="M169.612 95.6964C169.784 95.6964 169.954 95.7304 170.112 95.7964C170.271 95.8623 170.415 95.9591 170.536 96.081C170.657 96.2029 170.754 96.3476 170.819 96.5069C170.885 96.6662 170.919 96.837 170.919 97.0094V100.011C170.919 100.607 170.683 101.18 170.263 101.602C169.843 102.024 169.273 102.261 168.679 102.261C168.333 102.261 168 102.123 167.755 101.877C167.51 101.631 167.373 101.297 167.373 100.948V97.9473C167.373 97.3503 167.609 96.7778 168.029 96.3557C168.449 95.9336 169.018 95.6964 169.612 95.6964V95.6964Z" fill="#484848"/>
<path d="M169.612 119.707C169.018 119.707 168.449 119.47 168.029 119.048C167.609 118.626 167.373 118.053 167.373 117.456V115.393C167.373 114.796 167.609 114.224 168.029 113.801C168.449 113.379 169.018 113.142 169.612 113.142V113.142C170.844 113.142 170.732 114.155 170.732 115.393V117.456C170.73 118.694 170.848 119.707 169.612 119.707Z" fill="#484848"/>
<path d="M164.013 104.325C164.607 104.325 165.177 104.562 165.597 104.984C166.017 105.406 166.253 105.978 166.253 106.575V109.389C166.253 109.787 166.096 110.169 165.816 110.45C165.536 110.731 165.156 110.89 164.76 110.89C164.166 110.89 163.596 110.652 163.176 110.23C162.756 109.808 162.52 109.236 162.52 108.639V105.825C162.52 105.427 162.677 105.045 162.957 104.764C163.237 104.483 163.617 104.325 164.013 104.325Z" fill="#484848"/>
<path d="M176.798 106.765C176.798 107.087 176.798 107.41 176.778 107.729C176.73 108.97 176.581 110.205 176.333 111.422C176.21 111.443 176.085 111.454 175.96 111.454C175.366 111.454 174.796 111.217 174.376 110.795C173.956 110.373 173.72 109.8 173.72 109.203V107.14C173.72 106.543 173.956 105.97 174.376 105.548C174.796 105.126 175.366 104.889 175.96 104.889C176.156 104.889 176.35 104.914 176.539 104.966C176.606 104.985 176.673 105.005 176.737 105.03C176.778 105.6 176.798 106.18 176.798 106.765Z" fill="#484848"/>
<path d="M102.047 110.89H101.674C100.437 110.89 99.4343 111.897 99.4343 113.14V115.204C99.4343 116.447 100.437 117.454 101.674 117.454H102.047C103.284 117.454 104.287 116.447 104.287 115.204V113.14C104.287 111.897 103.284 110.89 102.047 110.89Z" fill="#484848"/>
<path d="M83.7563 110.89H83.383C82.1461 110.89 81.1433 111.897 81.1433 113.14V115.204C81.1433 116.447 82.1461 117.454 83.383 117.454H83.7563C84.9933 117.454 85.996 116.447 85.996 115.204V113.14C85.996 111.897 84.9933 110.89 83.7563 110.89Z" fill="#484848"/>
<path d="M92.7153 120.643H92.342C91.1051 120.643 90.1023 121.651 90.1023 122.894V124.957C90.1023 126.2 91.1051 127.208 92.342 127.208H92.7153C93.9523 127.208 94.955 126.2 94.955 124.957V122.894C94.955 121.651 93.9523 120.643 92.7153 120.643Z" fill="#484848"/>
<path d="M157.716 38.6412C157.715 38.999 157.652 39.3538 157.529 39.6898C157.316 40.2868 156.927 40.8042 156.414 41.1729C155.9 41.5416 155.287 41.744 154.656 41.753C154.025 41.7619 153.407 41.5771 152.883 41.2231C152.36 40.8692 151.956 40.363 151.726 39.7723C151.586 39.4139 151.514 39.0321 151.514 38.6469C151.514 37.8211 151.84 37.0291 152.421 36.4452C153.002 35.8612 153.79 35.5332 154.612 35.5332C155.434 35.5332 156.222 35.8612 156.803 36.4452C157.384 37.0291 157.71 37.8211 157.71 38.6469L157.716 38.6412Z" fill="#252525"/>
<path d="M152.143 39.4178C151.945 39.0603 151.82 38.6672 151.773 38.2609C151.727 37.8547 151.761 37.4432 151.873 37.0501C151.985 36.657 152.173 36.2899 152.426 35.9698C152.679 35.6496 152.993 35.3828 153.348 35.1844C153.694 34.9876 154.074 34.8602 154.468 34.8092C154.041 34.794 153.616 34.8676 153.219 35.0255C152.821 35.1834 152.461 35.4222 152.16 35.7268C151.859 36.0313 151.624 36.3952 151.469 36.7954C151.315 37.1957 151.245 37.6237 151.263 38.0526C151.281 38.4815 151.387 38.902 151.574 39.2877C151.762 39.6734 152.027 40.016 152.352 40.2939C152.678 40.5719 153.057 40.7791 153.466 40.9027C153.875 41.0263 154.305 41.0636 154.729 41.0122C154.198 40.9919 153.681 40.8345 153.228 40.5553C152.775 40.2761 152.401 39.8843 152.143 39.4178V39.4178Z" fill="#252525"/>
<path d="M159.045 42.9779H150.745V55.9896H159.045V42.9779Z" fill="#151515"/>
<path d="M137.626 90.1855C137.626 90.1855 136.741 92.624 134.639 92.9653C132.538 93.3067 131.324 93.8507 131.324 93.8507L136.304 97.075L138.96 96.7411C138.96 96.7411 139.29 93.2936 140.397 92.5152C141.504 91.7367 137.626 90.1855 137.626 90.1855Z" fill="#FBBEBE"/>
<path d="M173.595 90.1855C173.595 90.1855 174.48 92.624 176.582 92.9653C178.683 93.3067 179.9 93.8563 179.9 93.8563L174.921 97.0806L172.265 96.7467C172.265 96.7467 171.934 93.2992 170.828 92.5208C169.721 91.7424 173.595 90.1855 173.595 90.1855Z" fill="#FBBEBE"/>
<path d="M149.362 68.6112C149.362 68.6112 148.033 69.279 147.59 70.6126C147.59 70.6126 145.164 71.391 143.828 73.5049C143.828 73.5049 142.168 75.2831 141.946 76.174C141.724 77.065 139.18 82.4089 139.18 82.4089C139.18 82.4089 136.636 90.7482 135.307 91.6392C135.307 91.6392 139.512 90.7482 140.287 94.9742C140.287 94.9742 141.284 94.9742 142.391 91.0821C143.497 87.19 146.151 82.4089 146.151 82.4089C146.151 82.4089 147.038 79.072 147.812 78.5168C148.587 77.9616 149.804 75.4031 150.911 76.069C152.018 76.7349 159.321 75.9583 159.321 75.9583C159.321 75.9583 163.636 77.9597 163.746 79.2952C163.856 80.6307 164.633 80.7395 164.743 81.8518C164.853 82.9641 168.948 91.7499 168.948 91.7499C168.948 91.7499 169.723 94.1883 169.943 94.751C169.943 94.751 172.379 88.8575 175.587 92.1925C175.587 92.1925 175.477 89.9679 174.48 88.6287C173.483 87.2894 169.168 76.8399 169.168 76.8399C169.168 76.8399 168.726 75.2831 168.284 74.8385C167.841 74.394 164.411 70.8358 163.196 70.8358C163.196 70.8358 162.531 69.1664 161.757 68.9451L149.362 68.6112Z" fill="#696880"/>
<path d="M139.402 95.9683C138.537 96.3171 137.598 96.4348 136.674 96.3098C135.751 96.1849 134.875 95.8217 134.133 95.2555C133.412 94.6994 132.622 94.2398 131.783 93.8881C130.611 93.4117 129.206 93.0572 128.778 93.8562C128.004 95.3005 138.185 98.8606 138.185 98.8606C138.185 98.8606 139.512 98.0803 139.402 95.9683Z" fill="#696880"/>
<path d="M171.824 95.9683C172.689 96.3171 173.629 96.4348 174.552 96.3098C175.475 96.1849 176.351 95.8217 177.093 95.2555C177.814 94.6994 178.604 94.2398 179.443 93.8881C180.615 93.4117 182.02 93.0572 182.448 93.8562C183.222 95.3005 173.041 98.8606 173.041 98.8606C173.041 98.8606 171.714 98.0803 171.824 95.9683Z" fill="#696880"/>
<path d="M152.979 50.3193C152.936 50.7057 152.811 51.124 152.482 51.3303C152.213 51.4992 151.874 51.4841 151.564 51.5498C151.238 51.6309 150.936 51.788 150.682 52.0083C150.429 52.2286 150.23 52.5059 150.102 52.8178C149.855 53.4473 149.806 54.1385 149.964 54.7966C150.037 55.1197 150.131 55.4374 150.246 55.7476C150.573 56.6705 150.965 57.5839 151.57 58.353C152.087 58.9622 152.669 59.5131 153.305 59.9961C153.699 60.3187 154.106 60.6488 154.591 60.8007C154.921 60.8883 155.26 60.9331 155.601 60.9339C156.021 60.9546 156.467 60.9677 156.831 60.7576C157.391 60.4331 157.559 59.7147 157.861 59.1408C158.121 58.6512 158.505 58.2385 158.746 57.7396C158.916 57.3483 159.042 56.9386 159.119 56.5185L159.636 54.2095C159.823 53.373 159.995 52.4276 159.524 51.7092C159.491 51.6499 159.444 51.6002 159.386 51.5648C159.297 51.5284 159.199 51.518 159.104 51.5348C158.509 51.575 157.915 51.4387 157.397 51.1428C157.314 51.1017 157.241 51.0443 157.182 50.974C157.106 50.8552 157.06 50.7191 157.049 50.5782C156.999 50.2917 156.919 50.0114 156.81 49.7416C156.78 49.6453 156.724 49.5591 156.648 49.4922C156.569 49.4421 156.48 49.4119 156.387 49.404C155.588 49.2731 154.782 49.1879 153.973 49.1489C153.707 49.1376 153.307 49.0307 153.126 49.2652C152.945 49.4997 153.009 50.038 152.979 50.3193Z" fill="#FBBEBE"/>
<path opacity="0.1" d="M152.979 50.3193C152.936 50.7057 152.811 51.124 152.482 51.3303C152.213 51.4992 151.874 51.4841 151.564 51.5498C151.238 51.6309 150.936 51.788 150.682 52.0083C150.429 52.2286 150.23 52.5059 150.102 52.8178C149.855 53.4473 149.806 54.1385 149.964 54.7966C150.037 55.1197 150.131 55.4374 150.246 55.7476C150.573 56.6705 150.965 57.5839 151.57 58.353C152.087 58.9622 152.669 59.5131 153.305 59.9961C153.699 60.3187 154.106 60.6488 154.591 60.8007C154.921 60.8883 155.26 60.9331 155.601 60.9339C156.021 60.9546 156.467 60.9677 156.831 60.7576C157.391 60.4331 157.559 59.7147 157.861 59.1408C158.121 58.6512 158.505 58.2385 158.746 57.7396C158.916 57.3483 159.042 56.9386 159.119 56.5185L159.636 54.2095C159.823 53.373 159.995 52.4276 159.524 51.7092C159.491 51.6499 159.444 51.6002 159.386 51.5648C159.297 51.5284 159.199 51.518 159.104 51.5348C158.509 51.575 157.915 51.4387 157.397 51.1428C157.314 51.1017 157.241 51.0443 157.182 50.974C157.106 50.8552 157.06 50.7191 157.049 50.5782C156.999 50.2917 156.919 50.0114 156.81 49.7416C156.78 49.6453 156.724 49.5591 156.648 49.4922C156.569 49.4421 156.48 49.4119 156.387 49.404C155.588 49.2731 154.782 49.1879 153.973 49.1489C153.707 49.1376 153.307 49.0307 153.126 49.2652C152.945 49.4997 153.009 50.038 152.979 50.3193Z" fill="black"/>
<path d="M151.48 51.6474C151.047 51.518 150.599 51.4467 150.147 51.4354C149.08 51.4092 147.939 51.7806 147.322 52.6565C146.904 53.288 146.75 54.0597 146.894 54.8042C147.044 55.5432 147.378 56.2319 147.865 56.8056C148.147 57.1065 148.397 57.4359 148.611 57.7884C148.906 58.3511 148.914 59.0226 148.985 59.6641C149.171 61.1853 149.817 62.6184 150.075 64.1302C150.332 65.642 150.108 67.3976 148.919 68.3618C148.72 68.5231 148.479 68.6919 148.462 68.9488C148.434 69.3596 148.966 69.5359 149.375 69.5735C150.597 69.6916 151.851 69.806 153.038 69.4891C153.531 69.3578 154.003 69.1533 154.504 69.0595C155.775 68.8213 157.051 69.309 158.321 69.5453C159.24 69.6969 160.171 69.7728 161.103 69.7723C161.321 69.7917 161.54 69.7629 161.745 69.6879C161.847 69.6479 161.933 69.5766 161.991 69.4842C162.05 69.3918 162.077 69.2831 162.07 69.1739C162.03 69.0322 161.954 68.9031 161.85 68.7988C161.208 67.9997 161.012 66.9418 160.836 65.9308L160.258 62.5264C159.942 60.7108 159.649 58.7394 160.504 57.1075C161.12 55.9352 162.251 55.1099 162.901 53.9564C163.13 53.6072 163.234 53.1896 163.196 52.7728C163.099 52.1932 162.578 51.7787 162.044 51.5348C161.018 51.0739 159.855 51.0316 158.798 51.4167C158.817 52.2288 158.612 53.0504 158.477 53.8551L158.251 55.1681C158.137 55.9418 157.969 56.7064 157.748 57.4564C157.665 57.7558 157.528 58.0371 157.343 58.2855C157.143 58.5082 156.9 58.6865 156.628 58.8088C156.038 59.0984 155.39 59.2467 154.733 59.2421C154.449 59.2479 154.166 59.2047 153.897 59.1145C153.453 58.9532 153.093 58.6212 152.745 58.2986C152.631 58.2011 152.529 58.0903 152.441 57.9685C152.35 57.8118 152.28 57.6433 152.234 57.4677C152.083 57.0091 151.964 56.5402 151.879 56.0647C151.822 55.7008 151.805 55.3313 151.779 54.9636C151.697 53.8982 151.698 52.6921 151.48 51.6474Z" fill="#FBA403"/>
<path d="M150.356 73.1711C150.356 73.1711 149.914 79.0646 152.68 80.0662C155.446 81.0678 153.012 75.1725 153.012 75.1725L152.128 73.3925L150.356 73.1711Z" fill="#FBBEBE"/>
<path d="M159.763 73.1711C159.763 73.1711 160.206 79.0646 157.439 80.0662C154.673 81.0678 157.107 75.1725 157.107 75.1725L157.992 73.3925L159.763 73.1711Z" fill="#FBBEBE"/>
<path opacity="0.1" d="M147.923 53.4874L147.038 54.9336C147.038 54.9336 147.812 59.9379 147.923 60.827C148.017 61.4673 148.165 62.0985 148.365 62.714C148.365 62.714 148.475 65.3831 148.475 66.3828C148.475 67.3826 149.035 69.052 149.035 69.052C149.113 69.9974 149.3 70.9304 149.595 71.8317C150.037 73.0566 150.481 74.5009 150.481 74.5009C150.481 74.5009 151.041 72.944 153.247 75.2793C153.494 75.0271 153.632 74.6876 153.632 74.3339C153.632 73.9803 153.494 73.6408 153.247 73.3886C153.247 73.3886 152.583 70.3875 152.583 68.8306C152.583 67.2738 151.366 59.8273 151.366 59.8273C151.366 59.8273 150.578 51.3735 147.923 53.4874Z" fill="black"/>
<path d="M147.704 53.3768L146.82 54.8211C146.82 54.8211 147.594 59.8254 147.704 60.7164C147.8 61.3573 147.949 61.9891 148.148 62.6052C148.148 62.6052 148.264 65.2743 148.264 66.2778C148.264 67.2813 148.824 68.947 148.824 68.947C148.902 69.8923 149.09 70.8253 149.384 71.7267C149.826 72.9497 150.269 74.3959 150.269 74.3959C150.269 74.3959 150.829 72.839 153.035 75.1743C153.282 74.9223 153.42 74.5827 153.42 74.2289C153.42 73.8751 153.282 73.5356 153.035 73.2836C153.035 73.2836 152.37 70.2825 152.37 68.7238C152.37 67.1651 151.153 59.7204 151.153 59.7204C151.153 59.7204 150.356 51.2722 147.704 53.3768Z" fill="#FBA403"/>
<path opacity="0.1" d="M162.307 52.5966L162.867 53.2587C162.867 53.2587 163.52 57.0457 162.081 61.8269L161.639 66.1654C161.639 66.1654 160.864 69.8342 160.752 70.7252C160.64 71.6162 160.642 71.725 160.422 72.0588C160.354 72.1368 160.317 72.2367 160.317 72.3402C160.317 72.4437 160.354 72.5436 160.422 72.6215L159.758 75.0693C159.758 75.0693 158.761 73.8464 156.771 75.4032C156.771 75.4032 156.211 74.5122 156.661 73.7338C157.111 72.9554 157.104 72.6215 156.993 72.4002C156.883 72.1789 157.436 71.0647 157.436 70.8434C157.436 70.622 158.21 65.5051 158.21 65.5051C158.21 65.5051 158.543 60.5008 158.875 58.8333C159.078 57.8073 159.073 55.5189 159.039 53.9096C159.004 52.2346 161.021 51.3248 162.212 52.5047C162.244 52.529 162.275 52.5628 162.307 52.5966Z" fill="black"/>
<path d="M162.636 52.3752L163.196 53.0373C163.196 53.0373 163.847 56.8225 162.41 61.6055L161.968 65.9422C161.968 65.9422 161.193 69.6129 161.081 70.502C160.969 71.3911 160.971 71.5036 160.749 71.8356C160.682 71.9141 160.646 72.0138 160.646 72.117C160.646 72.2201 160.682 72.3199 160.749 72.3983L160.086 74.8367C160.086 74.8367 159.09 73.6138 157.1 75.1706C157.1 75.1706 156.54 74.2815 156.99 73.5031C157.44 72.7247 157.432 72.3908 157.32 72.1676C157.208 71.9444 157.764 70.834 157.764 70.6108C157.764 70.3876 158.539 65.2725 158.539 65.2725C158.539 65.2725 158.871 60.2682 159.202 58.6007C159.532 56.9332 159.314 51.9288 159.314 51.9288C159.314 51.9288 161.09 50.7096 162.636 52.3752Z" fill="#FBA403"/>
<path d="M155.226 50.8184C157.671 50.8184 159.653 48.8264 159.653 46.3692C159.653 43.912 157.671 41.92 155.226 41.92C152.781 41.92 150.799 43.912 150.799 46.3692C150.799 48.8264 152.781 50.8184 155.226 50.8184Z" fill="#FBBEBE"/>
<path opacity="0.1" d="M157.535 39.6898C157.322 40.2868 156.933 40.8043 156.419 41.173C155.906 41.5417 155.293 41.744 154.662 41.753C154.031 41.762 153.412 41.5771 152.889 41.2232C152.365 40.8692 151.961 40.3631 151.732 39.7724C153.458 39.0746 155.226 39.6973 155.226 39.6973C156.103 39.3841 156.872 39.4141 157.535 39.6898Z" fill="black"/>
<path d="M155.226 39.9206C155.226 39.9206 146.706 36.9195 148.807 51.4862C148.807 51.4862 150.689 52.7091 152.128 51.9307C152.128 51.9307 151.131 41.8019 155.004 42.2558C158.877 42.7098 158.214 51.7075 158.214 51.7075C158.214 51.7075 160.428 52.3752 161.09 51.1448C161.753 49.9143 160.87 37.9173 155.226 39.9206Z" fill="#252525"/>
<path opacity="0.1" d="M155.004 41.588C152.346 41.2823 151.982 45.9509 152.018 48.9126C152.051 45.9697 152.544 41.9725 155.004 42.2558C157.77 42.5728 158.222 47.2545 158.255 49.9068C158.285 47.474 158.02 41.935 155.004 41.588Z" fill="black"/>
<path opacity="0.1" d="M148.807 50.8183C148.615 49.54 148.505 48.2506 148.477 46.9581C148.468 48.4714 148.578 49.9829 148.807 51.4786C148.807 51.4786 150.689 52.7015 152.128 51.9231C152.128 51.9231 152.103 51.683 152.077 51.2797C150.646 52.0225 148.807 50.8183 148.807 50.8183Z" fill="black"/>
<path opacity="0.1" d="M161.09 50.4845C160.472 51.6231 158.511 51.1241 158.244 51.0472C158.231 51.4599 158.214 51.7056 158.214 51.7056C158.214 51.7056 160.428 52.3733 161.09 51.1429C161.228 50.8897 161.299 50.1788 161.277 49.2278C161.258 49.8486 161.193 50.2951 161.09 50.4845Z" fill="black"/>
<path d="M78.4422 19.9421C78.4207 19.9421 78.4099 19.9286 78.4099 19.9017L78.4261 14.3564C78.4261 14.3349 78.4368 14.3242 78.4583 14.3242H80.0888C80.3794 14.3242 80.6458 14.3968 80.8879 14.5421C81.1355 14.682 81.3319 14.873 81.4772 15.1152C81.6224 15.352 81.6951 15.621 81.6951 15.9224C81.6951 16.1215 81.6655 16.3017 81.6063 16.4632C81.5471 16.6192 81.4772 16.7537 81.3964 16.8667C81.3157 16.9744 81.2431 17.0551 81.1785 17.1089C81.4691 17.4318 81.6144 17.8111 81.6144 18.247L81.6224 19.9017C81.6224 19.9286 81.609 19.9421 81.5821 19.9421H80.67C80.6485 19.9421 80.6377 19.934 80.6377 19.9178V18.247C80.6377 18.0533 80.5677 17.8865 80.4278 17.7466C80.2933 17.6013 80.1265 17.5286 79.9274 17.5286H79.3947L79.3866 19.9017C79.3866 19.9286 79.3758 19.9421 79.3543 19.9421H78.4422ZM79.3947 16.56H80.0888C80.2556 16.56 80.4036 16.4981 80.5328 16.3744C80.6619 16.2506 80.7265 16.0999 80.7265 15.9224C80.7265 15.7502 80.6619 15.6022 80.5328 15.4784C80.409 15.3546 80.261 15.2928 80.0888 15.2928H79.3947V16.56Z" fill="#FBA403"/>
<path d="M82.3442 19.9421C82.3173 19.9421 82.3039 19.9286 82.3039 19.9017L82.3119 14.3564C82.3119 14.3349 82.3227 14.3242 82.3442 14.3242H83.2483C83.2698 14.3242 83.2805 14.3349 83.2805 14.3564L83.2886 19.9017C83.2886 19.9286 83.2779 19.9421 83.2563 19.9421H82.3442Z" fill="#FBA403"/>
<path d="M84.039 19.9421C84.0121 19.9421 83.9986 19.9286 83.9986 19.9017L84.0148 14.3564C84.0148 14.3349 84.0255 14.3242 84.047 14.3242L85.5564 14.3161C85.8524 14.3107 86.1215 14.3807 86.3636 14.5259C86.6111 14.6712 86.8076 14.8676 86.9528 15.1152C87.0981 15.3573 87.1708 15.6264 87.1708 15.9224V18.2389C87.1708 18.551 87.0954 18.8362 86.9448 19.0945C86.7941 19.3474 86.5923 19.5492 86.3394 19.6999C86.0865 19.8506 85.8013 19.9286 85.4838 19.934L84.039 19.9421ZM84.9834 18.9492H85.4838C85.6829 18.9492 85.8497 18.8793 85.9842 18.7394C86.1242 18.5995 86.1941 18.4326 86.1941 18.2389V15.9143C86.1941 15.7421 86.1295 15.5941 86.0004 15.4703C85.8766 15.3412 85.7286 15.2793 85.5564 15.2847L84.9914 15.2928L84.9834 18.9492Z" fill="#FBA403"/>
<path d="M87.8381 19.9421C87.8166 19.9421 87.8059 19.9286 87.8059 19.9017L87.8139 14.3564C87.8139 14.3349 87.8247 14.3242 87.8462 14.3242H90.4372C90.4588 14.3242 90.4695 14.3376 90.4695 14.3645V15.2685C90.4695 15.2901 90.4588 15.3008 90.4372 15.3008H88.7825V16.56H90.4372C90.4588 16.56 90.4695 16.5708 90.4695 16.5923L90.4776 17.5044C90.4776 17.5259 90.4668 17.5367 90.4453 17.5367H88.7825V18.9492H90.4453C90.4668 18.9492 90.4776 18.9627 90.4776 18.9896C90.4776 19.0165 90.4776 19.9098 90.4776 19.9098C90.4776 19.9313 90.4668 19.9421 90.4453 19.9421C90.4238 19.9421 87.8381 19.9421 87.8381 19.9421Z" fill="#FBA403"/>
<path d="M83.5643 12.1475L83.5667 12.0646C83.5683 12.0126 83.5732 11.9557 83.5813 11.894L83.6008 11.7502C83.6049 11.7161 83.6089 11.6852 83.613 11.6576C83.5358 11.7421 83.4737 11.8079 83.4266 11.855L83.2864 11.9915C82.9728 12.2848 82.7859 12.4314 82.7258 12.4314C82.6372 12.4314 82.5442 12.4123 82.4467 12.3742C82.3939 12.353 82.3639 12.3311 82.3565 12.3084C82.3452 12.2799 82.3395 12.2413 82.3395 12.1926C82.3395 12.143 82.3411 12.0975 82.3444 12.0561C82.3476 12.0146 82.3517 11.9736 82.3565 11.933C82.3614 11.8916 82.3663 11.8522 82.3712 11.8148C82.3769 11.7766 82.3813 11.7433 82.3846 11.7148C82.3927 11.6507 82.3943 11.6186 82.3894 11.6186L81.9361 12.1755C81.7224 12.4266 81.601 12.5655 81.5717 12.5923C81.5091 12.6492 81.4401 12.6776 81.3645 12.6776C81.3272 12.6776 81.2963 12.6683 81.2719 12.6496C81.2475 12.6309 81.2354 12.6077 81.2354 12.5801C81.2354 12.5249 81.2585 12.4672 81.3048 12.4071L82.387 11.0312L82.5138 10.8788C82.6649 10.7009 82.764 10.6119 82.8111 10.6119C82.8769 10.6119 82.9395 10.6286 82.9988 10.6619C83.0516 10.6912 83.0817 10.7196 83.089 10.7472C83.0922 10.7578 83.0853 10.8069 83.0683 10.8947L83.0256 11.125C82.9777 11.3817 82.9537 11.5475 82.9537 11.6222C82.9537 11.6962 82.9622 11.7331 82.9793 11.7331C83.0345 11.7331 83.141 11.6425 83.2986 11.4614L83.6934 10.9885C83.7804 10.8886 83.8381 10.8317 83.8665 10.8179C83.8746 10.8138 83.8864 10.8118 83.9018 10.8118C83.9173 10.8118 83.9343 10.8138 83.953 10.8179C83.9725 10.822 83.992 10.8272 84.0115 10.8337C84.0318 10.8402 84.0513 10.848 84.07 10.8569C84.0887 10.8658 84.1054 10.8752 84.12 10.8849C84.1517 10.906 84.1671 10.9235 84.1663 10.9373C84.1663 10.9503 84.163 10.9792 84.1565 11.0239C84.15 11.0677 84.1419 11.1213 84.1322 11.1847C84.0647 11.6048 84.0294 11.8485 84.0261 11.9159C84.0237 11.9834 84.0306 12.0256 84.0469 12.0427C84.0639 12.0597 84.0887 12.0683 84.1212 12.0683C84.1805 12.0683 84.2666 12.0329 84.3796 11.9622C84.4559 11.9143 84.5189 11.8903 84.5685 11.8903C84.6188 11.8903 84.644 11.9143 84.644 11.9622C84.644 12.0118 84.6172 12.0719 84.5636 12.1426C84.4864 12.245 84.371 12.3376 84.2175 12.4205C84.0883 12.4895 83.9656 12.5241 83.8494 12.5241C83.6593 12.5241 83.5643 12.3985 83.5643 12.1475Z" fill="#FBA403"/>
<path d="M85.1169 11.9257C85.1169 11.9631 85.1416 11.9817 85.1912 11.9817C85.292 11.9817 85.4634 11.8562 85.7055 11.6052L85.8237 11.4857C85.9041 11.4069 85.9574 11.3675 85.9834 11.3675C86.0094 11.3675 86.0325 11.372 86.0528 11.3809C86.0731 11.3899 86.091 11.4012 86.1064 11.4151C86.1381 11.4435 86.154 11.474 86.154 11.5065C86.154 11.5381 86.1503 11.5735 86.143 11.6125C86.1365 11.6507 86.1259 11.6937 86.1113 11.7417C86.0845 11.831 86.0362 11.9509 85.9663 12.1012L85.9163 12.2084L86.1235 12.0207L86.5476 11.6576C86.5907 11.6251 86.6264 11.6088 86.6549 11.6088C86.7166 11.6088 86.7475 11.6385 86.7475 11.6978C86.7475 11.7587 86.7077 11.8371 86.628 11.933C86.6037 11.9631 86.5773 11.9911 86.5488 12.0171L86.2612 12.2669L85.7006 12.741C85.6511 12.784 85.6137 12.8182 85.5885 12.8434C85.5584 12.8921 85.5349 12.9283 85.5178 12.9518C85.5016 12.9762 85.4853 13.0018 85.4691 13.0286C85.4528 13.0562 85.437 13.0798 85.4215 13.0993C85.3882 13.1415 85.3549 13.1626 85.3216 13.1626C85.2867 13.1626 85.253 13.1484 85.2205 13.12C85.1603 13.0672 85.1303 13.0201 85.1303 12.9786C85.1303 12.9372 85.1416 12.8889 85.1644 12.8336C85.1871 12.7792 85.2168 12.7166 85.2534 12.6459L85.5117 12.1694C85.3874 12.2815 85.2899 12.3559 85.2192 12.3924C85.1486 12.4282 85.0888 12.4517 85.0401 12.4631C84.9922 12.4753 84.941 12.4814 84.8865 12.4814C84.8329 12.4814 84.7858 12.47 84.7452 12.4473C84.7045 12.4253 84.6708 12.3957 84.644 12.3583C84.592 12.2844 84.566 12.1881 84.566 12.0695C84.566 11.9436 84.5977 11.8193 84.6611 11.6966C84.722 11.5763 84.8024 11.4796 84.9024 11.4065C85.008 11.3285 85.1165 11.2895 85.2278 11.2895C85.3391 11.2895 85.3947 11.333 85.3947 11.4199C85.3947 11.4744 85.3484 11.5552 85.2558 11.6624C85.1632 11.7689 85.1169 11.8566 85.1169 11.9257Z" fill="#FBA403"/>
<rect x="85.5952" y="15.9733" width="0.605074" height="0.579071" fill="#FBA403"/>
<rect x="84.9902" y="16.5524" width="0.605074" height="0.579071" fill="#FBA403"/>
<rect x="85.5952" y="17.1265" width="0.605074" height="0.579071" fill="#FBA403"/>
<rect x="84.9902" y="17.7056" width="0.605074" height="0.579071" fill="#FBA403"/>
<path fill-rule="evenodd" clip-rule="evenodd" d="M77.1198 11.8111C76.2633 11.8111 75.4948 12.3372 75.1849 13.1357L72.9392 18.9214C72.4112 20.2818 73.4149 21.748 74.8742 21.748H94.0257C95.485 21.748 96.4886 20.2818 95.9606 18.9214L93.715 13.1357C93.4051 12.3372 92.6365 11.8111 91.78 11.8111H88.2467V11.3499H91.78C92.8269 11.3499 93.7662 11.9929 94.145 12.9688L96.3906 18.7545C97.036 20.4172 95.8093 22.2092 94.0257 22.2092H74.8742C73.0906 22.2092 71.8639 20.4172 72.5093 18.7545L74.7549 12.9688C75.1337 11.9929 76.073 11.3499 77.1198 11.3499H80.2065V11.8111H77.1198Z" fill="#FBA403"/>
<path d="M84.4497 24.3072V22.1115" stroke="#FBA403" stroke-width="0.712655"/>
</g>
<defs>
<clipPath id="clip0_357_1866">
<rect width="193.13" height="132.554" fill="white"/>
</clipPath>
</defs>
</svg>
