<svg width="25" height="25" viewBox="0 0 25 25" fill="none" xmlns="http://www.w3.org/2000/svg">
<g clip-path="url(#clip0_1900_4367)">
<path d="M12.8729 22.6185C10.2496 22.6185 7.73372 21.5764 5.87874 19.7214C4.02376 17.8664 2.98165 15.3505 2.98165 12.7272C2.98165 10.1039 4.02376 7.58797 5.87874 5.73299C7.73372 3.87801 10.2496 2.83589 12.8729 2.83589C15.4963 2.83589 18.0122 3.87801 19.8672 5.73299C21.7221 7.58797 22.7642 10.1039 22.7642 12.7272C22.7642 15.3505 21.7221 17.8664 19.8672 19.7214C18.0122 21.5764 15.4963 22.6185 12.8729 22.6185ZM12.8729 24.0315C15.871 24.0315 18.7463 22.8405 20.8663 20.7206C22.9863 18.6006 24.1773 15.7253 24.1773 12.7272C24.1773 9.7291 22.9863 6.85379 20.8663 4.73382C18.7463 2.61384 15.871 1.42285 12.8729 1.42285C9.87485 1.42285 6.99954 2.61384 4.87957 4.73382C2.75959 6.85379 1.5686 9.7291 1.5686 12.7272C1.5686 15.7253 2.75959 18.6006 4.87957 20.7206C6.99954 22.8405 9.87485 24.0315 12.8729 24.0315V24.0315Z" fill="#1262AF"/>
<path d="M10.3494 7.92709C10.4827 7.85845 10.6324 7.82791 10.7819 7.83884C10.9314 7.84977 11.0751 7.90173 11.197 7.98902L16.9016 12.0638C17.0073 12.1392 17.0934 12.2387 17.1528 12.3541C17.2122 12.4695 17.2432 12.5974 17.2432 12.7272C17.2432 12.8569 17.2122 12.9849 17.1528 13.1002C17.0934 13.2156 17.0073 13.3152 16.9016 13.3905L11.197 17.4653C11.0751 17.5525 10.9316 17.6045 10.7821 17.6154C10.6326 17.6263 10.4831 17.5958 10.3498 17.5273C10.2166 17.4587 10.1048 17.3547 10.0268 17.2267C9.9488 17.0988 9.90759 16.9518 9.90772 16.8019V8.6524C9.90756 8.50258 9.9487 8.35562 10.0266 8.22766C10.1046 8.0997 10.2162 7.9957 10.3494 7.92709V7.92709Z" fill="#1262AF"/>
</g>
<defs>
<clipPath id="clip0_1900_4367">
<rect width="24" height="24" fill="white" transform="translate(0.873047 0.727295)"/>
</clipPath>
</defs>
</svg>
